<svg width="289" height="289" viewBox="0 0 289 289" fill="none" xmlns="http://www.w3.org/2000/svg">
<g clip-path="url(#paint0_diamond_5789_2661_clip_path)" data-figma-skip-parse="true"><g transform="matrix(0 0.0258534 -0.0258534 0 86.078 211.524)"><rect x="0" y="0" width="1027.98" height="1027.98" fill="url(#paint0_diamond_5789_2661)" opacity="1" shape-rendering="crispEdges"/><rect x="0" y="0" width="1027.98" height="1027.98" transform="scale(1 -1)" fill="url(#paint0_diamond_5789_2661)" opacity="1" shape-rendering="crispEdges"/><rect x="0" y="0" width="1027.98" height="1027.98" transform="scale(-1 1)" fill="url(#paint0_diamond_5789_2661)" opacity="1" shape-rendering="crispEdges"/><rect x="0" y="0" width="1027.98" height="1027.98" transform="scale(-1)" fill="url(#paint0_diamond_5789_2661)" opacity="1" shape-rendering="crispEdges"/></g></g><path d="M111.931 211.524C93.8019 215.789 90.3427 219.248 86.078 237.378C81.8134 219.248 78.3571 215.789 60.2246 211.524C78.3571 207.26 81.8134 203.803 86.078 185.671C90.3427 203.803 93.8019 207.26 111.931 211.524Z" data-figma-gradient-fill="{&#34;type&#34;:&#34;GRADIENT_DIAMOND&#34;,&#34;stops&#34;:[{&#34;color&#34;:{&#34;r&#34;:0.48941177129745483,&#34;g&#34;:0.60000002384185791,&#34;b&#34;:0.58352941274642944,&#34;a&#34;:1.0},&#34;position&#34;:0.0},{&#34;color&#34;:{&#34;r&#34;:0.81568628549575806,&#34;g&#34;:1.0,&#34;b&#34;:0.97254902124404907,&#34;a&#34;:1.0},&#34;position&#34;:0.41826921701431274}],&#34;stopsVar&#34;:[{&#34;color&#34;:{&#34;r&#34;:0.48941177129745483,&#34;g&#34;:0.60000002384185791,&#34;b&#34;:0.58352941274642944,&#34;a&#34;:1.0},&#34;position&#34;:0.0},{&#34;color&#34;:{&#34;r&#34;:0.81568628549575806,&#34;g&#34;:1.0,&#34;b&#34;:0.97254902124404907,&#34;a&#34;:1.0},&#34;position&#34;:0.41826921701431274}],&#34;transform&#34;:{&#34;m00&#34;:3.1661322885966113e-15,&#34;m01&#34;:-51.706863403320312,&#34;m02&#34;:111.93147277832031,&#34;m10&#34;:51.706863403320312,&#34;m11&#34;:3.1661322885966113e-15,&#34;m12&#34;:185.67089843750},&#34;opacity&#34;:1.0,&#34;blendMode&#34;:&#34;NORMAL&#34;,&#34;visible&#34;:true}"/>
<mask id="mask0_5789_2661" style="mask-type:luminance" maskUnits="userSpaceOnUse" x="0" y="0" width="289" height="289">
<path d="M0 0H289V289H0V0Z" fill="white"/>
</mask>
<g mask="url(#mask0_5789_2661)">
<g clip-path="url(#paint1_diamond_5789_2661_clip_path)" data-figma-skip-parse="true"><g transform="matrix(0 0.144484 -0.144484 0 144.484 144.484)"><rect x="0" y="0" width="1005.01" height="1005.01" fill="url(#paint1_diamond_5789_2661)" opacity="1" shape-rendering="crispEdges"/><rect x="0" y="0" width="1005.01" height="1005.01" transform="scale(1 -1)" fill="url(#paint1_diamond_5789_2661)" opacity="1" shape-rendering="crispEdges"/><rect x="0" y="0" width="1005.01" height="1005.01" transform="scale(-1 1)" fill="url(#paint1_diamond_5789_2661)" opacity="1" shape-rendering="crispEdges"/><rect x="0" y="0" width="1005.01" height="1005.01" transform="scale(-1)" fill="url(#paint1_diamond_5789_2661)" opacity="1" shape-rendering="crispEdges"/></g></g><path d="M288.969 144.483C155.358 150.491 150.491 155.358 144.483 288.969C138.477 155.358 133.611 150.491 0 144.483C133.611 138.477 138.477 133.608 144.483 0C150.491 133.608 155.361 138.477 288.969 144.483Z" data-figma-gradient-fill="{&#34;type&#34;:&#34;GRADIENT_DIAMOND&#34;,&#34;stops&#34;:[{&#34;color&#34;:{&#34;r&#34;:0.48941177129745483,&#34;g&#34;:0.60000002384185791,&#34;b&#34;:0.58352941274642944,&#34;a&#34;:1.0},&#34;position&#34;:0.0},{&#34;color&#34;:{&#34;r&#34;:0.81568628549575806,&#34;g&#34;:1.0,&#34;b&#34;:0.97254902124404907,&#34;a&#34;:1.0},&#34;position&#34;:0.41826921701431274}],&#34;stopsVar&#34;:[{&#34;color&#34;:{&#34;r&#34;:0.48941177129745483,&#34;g&#34;:0.60000002384185791,&#34;b&#34;:0.58352941274642944,&#34;a&#34;:1.0},&#34;position&#34;:0.0},{&#34;color&#34;:{&#34;r&#34;:0.81568628549575806,&#34;g&#34;:1.0,&#34;b&#34;:0.97254902124404907,&#34;a&#34;:1.0},&#34;position&#34;:0.41826921701431274}],&#34;transform&#34;:{&#34;m00&#34;:1.7694240441335635e-14,&#34;m01&#34;:-288.96887207031250,&#34;m02&#34;:288.96887207031250,&#34;m10&#34;:288.96887207031250,&#34;m11&#34;:1.7694240441335635e-14,&#34;m12&#34;:-1.7694240441335635e-14},&#34;opacity&#34;:1.0,&#34;blendMode&#34;:&#34;NORMAL&#34;,&#34;visible&#34;:true}"/>
</g>
<g clip-path="url(#paint2_diamond_5789_2661_clip_path)" data-figma-skip-parse="true"><g transform="matrix(0 0.0322673 -0.0322673 0 79.6013 68.1736)"><rect x="0" y="0" width="1022.42" height="1022.42" fill="url(#paint2_diamond_5789_2661)" opacity="1" shape-rendering="crispEdges"/><rect x="0" y="0" width="1022.42" height="1022.42" transform="scale(1 -1)" fill="url(#paint2_diamond_5789_2661)" opacity="1" shape-rendering="crispEdges"/><rect x="0" y="0" width="1022.42" height="1022.42" transform="scale(-1 1)" fill="url(#paint2_diamond_5789_2661)" opacity="1" shape-rendering="crispEdges"/><rect x="0" y="0" width="1022.42" height="1022.42" transform="scale(-1)" fill="url(#paint2_diamond_5789_2661)" opacity="1" shape-rendering="crispEdges"/></g></g><path d="M111.869 68.1722C82.0304 69.5146 80.9423 70.6026 79.6027 100.441C78.2603 70.6026 77.1723 69.5146 47.334 68.1722C77.1723 66.8326 78.2603 65.7445 79.6027 35.9062C80.9423 65.7445 82.0304 66.8326 111.869 68.1722Z" data-figma-gradient-fill="{&#34;type&#34;:&#34;GRADIENT_DIAMOND&#34;,&#34;stops&#34;:[{&#34;color&#34;:{&#34;r&#34;:0.48941177129745483,&#34;g&#34;:0.60000002384185791,&#34;b&#34;:0.58352941274642944,&#34;a&#34;:1.0},&#34;position&#34;:0.0},{&#34;color&#34;:{&#34;r&#34;:0.81568628549575806,&#34;g&#34;:1.0,&#34;b&#34;:0.97254902124404907,&#34;a&#34;:1.0},&#34;position&#34;:0.41826921701431274}],&#34;stopsVar&#34;:[{&#34;color&#34;:{&#34;r&#34;:0.48941177129745483,&#34;g&#34;:0.60000002384185791,&#34;b&#34;:0.58352941274642944,&#34;a&#34;:1.0},&#34;position&#34;:0.0},{&#34;color&#34;:{&#34;r&#34;:0.81568628549575806,&#34;g&#34;:1.0,&#34;b&#34;:0.97254902124404907,&#34;a&#34;:1.0},&#34;position&#34;:0.41826921701431274}],&#34;transform&#34;:{&#34;m00&#34;:3.9516090222333367e-15,&#34;m01&#34;:-64.534667968750,&#34;m02&#34;:111.868652343750,&#34;m10&#34;:64.534667968750,&#34;m11&#34;:3.9516090222333367e-15,&#34;m12&#34;:35.906250},&#34;opacity&#34;:1.0,&#34;blendMode&#34;:&#34;NORMAL&#34;,&#34;visible&#34;:true}"/>
<g clip-path="url(#paint3_diamond_5789_2661_clip_path)" data-figma-skip-parse="true"><g transform="matrix(0 0.0473843 -0.0473843 0 226.5 65.4409)"><rect x="0" y="0" width="1015.27" height="1015.27" fill="url(#paint3_diamond_5789_2661)" opacity="1" shape-rendering="crispEdges"/><rect x="0" y="0" width="1015.27" height="1015.27" transform="scale(1 -1)" fill="url(#paint3_diamond_5789_2661)" opacity="1" shape-rendering="crispEdges"/><rect x="0" y="0" width="1015.27" height="1015.27" transform="scale(-1 1)" fill="url(#paint3_diamond_5789_2661)" opacity="1" shape-rendering="crispEdges"/><rect x="0" y="0" width="1015.27" height="1015.27" transform="scale(-1)" fill="url(#paint3_diamond_5789_2661)" opacity="1" shape-rendering="crispEdges"/></g></g><path d="M273.884 65.4424C230.068 67.4122 228.471 69.0089 226.501 112.825C224.531 69.0089 222.934 67.4122 179.115 65.4424C222.934 63.4725 224.531 61.8758 226.501 18.0566C228.471 61.8758 230.068 63.4725 273.884 65.4424Z" data-figma-gradient-fill="{&#34;type&#34;:&#34;GRADIENT_DIAMOND&#34;,&#34;stops&#34;:[{&#34;color&#34;:{&#34;r&#34;:0.48941177129745483,&#34;g&#34;:0.60000002384185791,&#34;b&#34;:0.58352941274642944,&#34;a&#34;:1.0},&#34;position&#34;:0.0},{&#34;color&#34;:{&#34;r&#34;:0.81568628549575806,&#34;g&#34;:1.0,&#34;b&#34;:0.97254902124404907,&#34;a&#34;:1.0},&#34;position&#34;:0.41826921701431274}],&#34;stopsVar&#34;:[{&#34;color&#34;:{&#34;r&#34;:0.48941177129745483,&#34;g&#34;:0.60000002384185791,&#34;b&#34;:0.58352941274642944,&#34;a&#34;:1.0},&#34;position&#34;:0.0},{&#34;color&#34;:{&#34;r&#34;:0.81568628549575806,&#34;g&#34;:1.0,&#34;b&#34;:0.97254902124404907,&#34;a&#34;:1.0},&#34;position&#34;:0.41826921701431274}],&#34;transform&#34;:{&#34;m00&#34;:5.8029032899936488e-15,&#34;m01&#34;:-94.768600463867188,&#34;m02&#34;:273.88385009765625,&#34;m10&#34;:94.768600463867188,&#34;m11&#34;:5.8029032899936488e-15,&#34;m12&#34;:18.0566406250},&#34;opacity&#34;:1.0,&#34;blendMode&#34;:&#34;NORMAL&#34;,&#34;visible&#34;:true}"/>
<g clip-path="url(#paint4_diamond_5789_2661_clip_path)" data-figma-skip-parse="true"><g transform="matrix(0 0.0129069 -0.0129069 0 260.967 33.1696)"><rect x="0" y="0" width="1056.05" height="1056.05" fill="url(#paint4_diamond_5789_2661)" opacity="1" shape-rendering="crispEdges"/><rect x="0" y="0" width="1056.05" height="1056.05" transform="scale(1 -1)" fill="url(#paint4_diamond_5789_2661)" opacity="1" shape-rendering="crispEdges"/><rect x="0" y="0" width="1056.05" height="1056.05" transform="scale(-1 1)" fill="url(#paint4_diamond_5789_2661)" opacity="1" shape-rendering="crispEdges"/><rect x="0" y="0" width="1056.05" height="1056.05" transform="scale(-1)" fill="url(#paint4_diamond_5789_2661)" opacity="1" shape-rendering="crispEdges"/></g></g><path d="M273.874 33.1696C261.94 33.7066 261.504 34.1418 260.967 46.0766C260.433 34.1418 259.998 33.7066 248.061 33.1696C259.998 32.6355 260.433 32.2003 260.967 20.2627C261.504 32.2003 261.94 32.6355 273.874 33.1696Z" data-figma-gradient-fill="{&#34;type&#34;:&#34;GRADIENT_DIAMOND&#34;,&#34;stops&#34;:[{&#34;color&#34;:{&#34;r&#34;:0.48941177129745483,&#34;g&#34;:0.60000002384185791,&#34;b&#34;:0.58352941274642944,&#34;a&#34;:1.0},&#34;position&#34;:0.0},{&#34;color&#34;:{&#34;r&#34;:0.81568628549575806,&#34;g&#34;:1.0,&#34;b&#34;:0.97254902124404907,&#34;a&#34;:1.0},&#34;position&#34;:0.41826921701431274}],&#34;stopsVar&#34;:[{&#34;color&#34;:{&#34;r&#34;:0.48941177129745483,&#34;g&#34;:0.60000002384185791,&#34;b&#34;:0.58352941274642944,&#34;a&#34;:1.0},&#34;position&#34;:0.0},{&#34;color&#34;:{&#34;r&#34;:0.81568628549575806,&#34;g&#34;:1.0,&#34;b&#34;:0.97254902124404907,&#34;a&#34;:1.0},&#34;position&#34;:0.41826921701431274}],&#34;transform&#34;:{&#34;m00&#34;:1.5806436300691584e-15,&#34;m01&#34;:-25.813867568969727,&#34;m02&#34;:273.87442016601562,&#34;m10&#34;:25.813867568969727,&#34;m11&#34;:1.5806436300691584e-15,&#34;m12&#34;:20.26269531250},&#34;opacity&#34;:1.0,&#34;blendMode&#34;:&#34;NORMAL&#34;,&#34;visible&#34;:true}"/>
<g clip-path="url(#paint5_diamond_5789_2661_clip_path)" data-figma-skip-parse="true"><g transform="matrix(0 0.0129069 -0.0129069 0 186.528 18.0563)"><rect x="0" y="0" width="1056.05" height="1056.05" fill="url(#paint5_diamond_5789_2661)" opacity="1" shape-rendering="crispEdges"/><rect x="0" y="0" width="1056.05" height="1056.05" transform="scale(1 -1)" fill="url(#paint5_diamond_5789_2661)" opacity="1" shape-rendering="crispEdges"/><rect x="0" y="0" width="1056.05" height="1056.05" transform="scale(-1 1)" fill="url(#paint5_diamond_5789_2661)" opacity="1" shape-rendering="crispEdges"/><rect x="0" y="0" width="1056.05" height="1056.05" transform="scale(-1)" fill="url(#paint5_diamond_5789_2661)" opacity="1" shape-rendering="crispEdges"/></g></g><path d="M199.435 18.0563C187.5 18.5905 187.065 19.0257 186.528 30.9633C185.994 19.0257 185.559 18.5905 173.621 18.0563C185.559 17.5194 185.994 17.0842 186.528 5.14941C187.065 17.0842 187.5 17.5194 199.435 18.0563Z" data-figma-gradient-fill="{&#34;type&#34;:&#34;GRADIENT_DIAMOND&#34;,&#34;stops&#34;:[{&#34;color&#34;:{&#34;r&#34;:0.48941177129745483,&#34;g&#34;:0.60000002384185791,&#34;b&#34;:0.58352941274642944,&#34;a&#34;:1.0},&#34;position&#34;:0.0},{&#34;color&#34;:{&#34;r&#34;:0.81568628549575806,&#34;g&#34;:1.0,&#34;b&#34;:0.97254902124404907,&#34;a&#34;:1.0},&#34;position&#34;:0.41826921701431274}],&#34;stopsVar&#34;:[{&#34;color&#34;:{&#34;r&#34;:0.48941177129745483,&#34;g&#34;:0.60000002384185791,&#34;b&#34;:0.58352941274642944,&#34;a&#34;:1.0},&#34;position&#34;:0.0},{&#34;color&#34;:{&#34;r&#34;:0.81568628549575806,&#34;g&#34;:1.0,&#34;b&#34;:0.97254902124404907,&#34;a&#34;:1.0},&#34;position&#34;:0.41826921701431274}],&#34;transform&#34;:{&#34;m00&#34;:1.5806436300691584e-15,&#34;m01&#34;:-25.813867568969727,&#34;m02&#34;:199.43496704101562,&#34;m10&#34;:25.813867568969727,&#34;m11&#34;:1.5806436300691584e-15,&#34;m12&#34;:5.14941406250},&#34;opacity&#34;:1.0,&#34;blendMode&#34;:&#34;NORMAL&#34;,&#34;visible&#34;:true}"/>
<defs>
<clipPath id="paint0_diamond_5789_2661_clip_path"><path d="M111.931 211.524C93.8019 215.789 90.3427 219.248 86.078 237.378C81.8134 219.248 78.3571 215.789 60.2246 211.524C78.3571 207.26 81.8134 203.803 86.078 185.671C90.3427 203.803 93.8019 207.26 111.931 211.524Z"/></clipPath><clipPath id="paint1_diamond_5789_2661_clip_path"><path d="M288.969 144.483C155.358 150.491 150.491 155.358 144.483 288.969C138.477 155.358 133.611 150.491 0 144.483C133.611 138.477 138.477 133.608 144.483 0C150.491 133.608 155.361 138.477 288.969 144.483Z"/></clipPath><clipPath id="paint2_diamond_5789_2661_clip_path"><path d="M111.869 68.1722C82.0304 69.5146 80.9423 70.6026 79.6027 100.441C78.2603 70.6026 77.1723 69.5146 47.334 68.1722C77.1723 66.8326 78.2603 65.7445 79.6027 35.9062C80.9423 65.7445 82.0304 66.8326 111.869 68.1722Z"/></clipPath><clipPath id="paint3_diamond_5789_2661_clip_path"><path d="M273.884 65.4424C230.068 67.4122 228.471 69.0089 226.501 112.825C224.531 69.0089 222.934 67.4122 179.115 65.4424C222.934 63.4725 224.531 61.8758 226.501 18.0566C228.471 61.8758 230.068 63.4725 273.884 65.4424Z"/></clipPath><clipPath id="paint4_diamond_5789_2661_clip_path"><path d="M273.874 33.1696C261.94 33.7066 261.504 34.1418 260.967 46.0766C260.433 34.1418 259.998 33.7066 248.061 33.1696C259.998 32.6355 260.433 32.2003 260.967 20.2627C261.504 32.2003 261.94 32.6355 273.874 33.1696Z"/></clipPath><clipPath id="paint5_diamond_5789_2661_clip_path"><path d="M199.435 18.0563C187.5 18.5905 187.065 19.0257 186.528 30.9633C185.994 19.0257 185.559 18.5905 173.621 18.0563C185.559 17.5194 185.994 17.0842 186.528 5.14941C187.065 17.0842 187.5 17.5194 199.435 18.0563Z"/></clipPath><linearGradient id="paint0_diamond_5789_2661" x1="0" y1="0" x2="500" y2="500" gradientUnits="userSpaceOnUse">
<stop stop-color="#7D9995"/>
<stop offset="0.418269" stop-color="#D0FFF8"/>
</linearGradient>
<linearGradient id="paint1_diamond_5789_2661" x1="0" y1="0" x2="500" y2="500" gradientUnits="userSpaceOnUse">
<stop stop-color="#7D9995"/>
<stop offset="0.418269" stop-color="#D0FFF8"/>
</linearGradient>
<linearGradient id="paint2_diamond_5789_2661" x1="0" y1="0" x2="500" y2="500" gradientUnits="userSpaceOnUse">
<stop stop-color="#7D9995"/>
<stop offset="0.418269" stop-color="#D0FFF8"/>
</linearGradient>
<linearGradient id="paint3_diamond_5789_2661" x1="0" y1="0" x2="500" y2="500" gradientUnits="userSpaceOnUse">
<stop stop-color="#7D9995"/>
<stop offset="0.418269" stop-color="#D0FFF8"/>
</linearGradient>
<linearGradient id="paint4_diamond_5789_2661" x1="0" y1="0" x2="500" y2="500" gradientUnits="userSpaceOnUse">
<stop stop-color="#7D9995"/>
<stop offset="0.418269" stop-color="#D0FFF8"/>
</linearGradient>
<linearGradient id="paint5_diamond_5789_2661" x1="0" y1="0" x2="500" y2="500" gradientUnits="userSpaceOnUse">
<stop stop-color="#7D9995"/>
<stop offset="0.418269" stop-color="#D0FFF8"/>
</linearGradient>
</defs>
</svg>
