<svg xmlns="http://www.w3.org/2000/svg" xmlns:xlink="http://www.w3.org/1999/xlink" width="100" zoomAndPan="magnify" viewBox="0 0 75 31.5" height="42" preserveAspectRatio="xMidYMid meet" version="1.2"><defs><clipPath id="5500fd28ed"><path d="M 1 0 L 74.042969 0 L 74.042969 31 L 1 31 Z M 1 0 "/></clipPath></defs><g id="e0aefb0191"><path style=" stroke:none;fill-rule:nonzero;fill:#ffffff;fill-opacity:1;" d="M 35.949219 0.25 C 41.667969 0.183594 46.84375 3.167969 48.984375 7.757812 C 50.585938 6.832031 52.414062 6.304688 54.292969 6.222656 C 60.351562 5.980469 65.492188 10.347656 65.839844 16.027344 L 65.855469 16.621094 C 65.851562 16.921875 65.832031 17.226562 65.800781 17.527344 C 69.152344 17.757812 72.058594 19.644531 73.273438 22.382812 C 73.308594 22.5 73.34375 22.613281 73.378906 22.734375 C 73.644531 23.640625 73.816406 24.566406 73.78125 25.382812 C 73.742188 26.203125 73.492188 26.910156 73.132812 27.535156 C 72.777344 28.164062 72.308594 28.707031 71.632812 29.203125 C 71.21875 29.507812 70.722656 29.792969 70.136719 30.03125 C 69.839844 30.128906 69.460938 30.246094 68.984375 30.332031 C 68.46875 30.425781 67.847656 30.480469 67.273438 30.511719 C 66.984375 30.527344 66.707031 30.535156 66.417969 30.539062 L 9.0625 30.539062 C 8.945312 30.535156 8.828125 30.53125 8.710938 30.523438 C 8.039062 30.480469 7.425781 30.382812 6.832031 30.214844 C 6.238281 30.050781 5.664062 29.816406 5.191406 29.574219 C 4.929688 29.441406 4.703125 29.304688 4.488281 29.164062 C 2.511719 27.878906 1.328125 25.953125 1.25 23.894531 C 1.117188 20.054688 4.800781 16.835938 9.527344 16.671875 C 10.703125 16.632812 11.875 16.789062 12.976562 17.128906 C 13.273438 14.039062 15.984375 11.632812 19.324219 11.492188 C 20.347656 11.453125 21.367188 11.636719 22.304688 12.027344 C 22.441406 5.691406 28.242188 0.539062 35.554688 0.257812 C 35.644531 0.257812 35.734375 0.253906 35.828125 0.253906 C 35.867188 0.253906 35.910156 0.25 35.949219 0.25 Z M 35.949219 0.25 "/><g clip-rule="nonzero" clip-path="url(#5500fd28ed)"><path style=" stroke:none;fill-rule:nonzero;fill:#ffffff;fill-opacity:1;" d="M 9.0625 30.769531 L 8.699219 30.753906 C 8 30.707031 7.367188 30.605469 6.769531 30.4375 C 6.203125 30.277344 5.605469 30.042969 5.085938 29.777344 C 4.847656 29.652344 4.617188 29.519531 4.363281 29.355469 C 2.320312 28.027344 1.101562 26.039062 1.023438 23.90625 C 0.953125 21.976562 1.804688 20.140625 3.417969 18.734375 C 5.015625 17.335938 7.183594 16.523438 9.519531 16.445312 C 10.636719 16.410156 11.730469 16.535156 12.78125 16.832031 C 13.21875 13.773438 15.976562 11.402344 19.3125 11.261719 C 20.253906 11.230469 21.207031 11.378906 22.089844 11.695312 C 22.414062 5.402344 28.253906 0.308594 35.546875 0.03125 C 35.636719 0.0273438 35.730469 0.0234375 35.824219 0.0234375 L 35.949219 0.0234375 C 36.011719 0.0195312 36.074219 0.0195312 36.140625 0.0195312 C 41.816406 0.0195312 46.855469 2.910156 49.085938 7.4375 C 50.664062 6.570312 52.453125 6.074219 54.28125 5.996094 C 60.433594 5.746094 65.714844 10.242188 66.066406 16.011719 L 66.085938 16.613281 C 66.082031 16.851562 66.070312 17.089844 66.050781 17.316406 C 69.371094 17.625 72.269531 19.554688 73.480469 22.289062 L 73.597656 22.671875 C 73.90625 23.71875 74.042969 24.632812 74.007812 25.394531 C 73.972656 26.179688 73.75 26.917969 73.332031 27.652344 C 72.9375 28.347656 72.4375 28.898438 71.765625 29.390625 C 71.304688 29.726562 70.785156 30.015625 70.222656 30.242188 C 69.949219 30.335938 69.542969 30.464844 69.023438 30.558594 C 68.417969 30.664062 67.746094 30.714844 67.285156 30.738281 C 66.996094 30.757812 66.714844 30.761719 66.421875 30.769531 Z M 9.898438 16.894531 C 9.777344 16.894531 9.65625 16.894531 9.535156 16.902344 C 7.304688 16.980469 5.238281 17.75 3.71875 19.078125 C 2.210938 20.390625 1.417969 22.101562 1.480469 23.886719 C 1.554688 25.871094 2.695312 27.726562 4.613281 28.972656 C 4.851562 29.128906 5.070312 29.253906 5.292969 29.371094 C 5.789062 29.621094 6.355469 29.84375 6.890625 29.996094 C 7.460938 30.15625 8.0625 30.253906 8.726562 30.296875 L 9.074219 30.3125 L 66.417969 30.3125 C 66.699219 30.304688 66.976562 30.296875 67.261719 30.28125 C 67.894531 30.25 68.488281 30.1875 68.941406 30.105469 C 69.429688 30.019531 69.816406 29.898438 70.0625 29.8125 C 70.578125 29.605469 71.066406 29.335938 71.496094 29.019531 C 72.113281 28.570312 72.570312 28.0625 72.9375 27.421875 C 73.316406 26.757812 73.519531 26.085938 73.550781 25.375 C 73.585938 24.664062 73.453125 23.796875 73.160156 22.796875 L 73.054688 22.449219 C 71.890625 19.832031 69.035156 17.976562 65.785156 17.757812 L 65.546875 17.738281 L 65.574219 17.503906 C 65.605469 17.210938 65.625 16.914062 65.628906 16.617188 L 65.609375 16.03125 C 65.273438 10.515625 60.203125 6.207031 54.300781 6.453125 C 52.464844 6.53125 50.664062 7.050781 49.097656 7.953125 L 48.882812 8.078125 L 48.777344 7.851562 C 46.710938 3.425781 41.644531 0.476562 36.125 0.476562 C 36.070312 0.476562 36.011719 0.476562 35.953125 0.476562 L 35.953125 0.480469 C 35.953125 0.480469 35.832031 0.480469 35.832031 0.480469 C 35.742188 0.480469 35.652344 0.484375 35.5625 0.488281 C 28.390625 0.761719 22.667969 5.832031 22.535156 12.03125 L 22.527344 12.363281 L 22.21875 12.238281 C 21.316406 11.863281 20.316406 11.683594 19.332031 11.71875 C 16.125 11.855469 13.492188 14.1875 13.203125 17.148438 L 13.175781 17.429688 L 12.90625 17.347656 C 11.941406 17.046875 10.929688 16.894531 9.898438 16.894531 Z M 9.898438 16.894531 "/></g></g></svg>