<svg width="82" height="82" viewBox="0 0 82 82" fill="none" xmlns="http://www.w3.org/2000/svg">
<mask id="mask0_6708_2498" style="mask-type:luminance" maskUnits="userSpaceOnUse" x="0" y="0" width="82" height="82">
<path d="M0 0H82V82H0V0Z" fill="white"/>
</mask>
<g mask="url(#mask0_6708_2498)">
<path d="M82.0758 41.0388C82.0758 41.7089 82.0602 42.381 82.0272 43.0511C81.9942 43.7231 81.9437 44.3913 81.8796 45.0613C81.8135 45.7295 81.73 46.3957 81.6329 47.06C81.5338 47.7242 81.4193 48.3846 81.2872 49.045C81.157 49.7034 81.0094 50.358 80.8463 51.0087C80.6831 51.6613 80.5044 52.3081 80.3083 52.951C80.114 53.5939 79.9043 54.2309 79.677 54.8641C79.4517 55.4954 79.2089 56.1227 78.9525 56.7423C78.6962 57.3639 78.4242 57.9776 78.1368 58.5836C77.8493 59.1916 77.5463 59.7917 77.2297 60.3842C76.9131 60.9766 76.5829 61.5592 76.2372 62.1361C75.8934 62.711 75.5341 63.2801 75.1592 63.8376C74.7863 64.3969 74.3998 64.9447 73.9997 65.4846C73.5996 66.0246 73.1878 66.5529 72.7605 67.0715C72.3351 67.592 71.8962 68.099 71.4455 68.5981C70.9949 69.0954 70.5307 69.5809 70.0568 70.0568C69.5809 70.5307 69.0954 70.9949 68.5981 71.4455C68.1009 71.8962 67.592 72.3351 67.0734 72.7605C66.5529 73.1878 66.0246 73.5996 65.4846 73.9997C64.9447 74.3998 64.3969 74.7863 63.8376 75.1592C63.2801 75.5321 62.713 75.8915 62.1361 76.2372C61.5592 76.5829 60.9766 76.9131 60.3842 77.2297C59.7917 77.5463 59.1916 77.8493 58.5836 78.1368C57.9776 78.4223 57.3639 78.6962 56.7423 78.9525C56.1227 79.2089 55.4954 79.4517 54.8641 79.677C54.2309 79.9043 53.5939 80.114 52.951 80.3083C52.3081 80.5044 51.6613 80.6831 51.0106 80.8463C50.358 81.0094 49.7034 81.157 49.045 81.2872C48.3866 81.4193 47.7242 81.5339 47.06 81.631C46.3957 81.73 45.7295 81.8135 45.0613 81.8776C44.3932 81.9437 43.7231 81.9942 43.0511 82.0272C42.381 82.0602 41.7109 82.0758 41.0388 82.0758C40.3668 82.0758 39.6948 82.0602 39.0247 82.0272C38.3546 81.9942 37.6845 81.9437 37.0163 81.8776C36.3482 81.8135 35.682 81.73 35.0177 81.631C34.3535 81.5339 33.6911 81.4193 33.0327 81.2872C32.3742 81.157 31.7178 81.0094 31.0671 80.8463C30.4164 80.6831 29.7677 80.5044 29.1248 80.3083C28.4838 80.114 27.8448 79.9043 27.2136 79.677C26.5804 79.4517 25.9549 79.2089 25.3334 78.9525C24.7138 78.6962 24.1001 78.4223 23.4921 78.1368C22.8861 77.8493 22.2859 77.5463 21.6935 77.2297C21.1011 76.9131 20.5165 76.5829 19.9416 76.2372C19.3647 75.8915 18.7976 75.5321 18.2382 75.1592C17.6808 74.7863 17.1311 74.3998 16.5931 73.9997C16.0531 73.5996 15.5229 73.1878 15.0043 72.7605C14.4857 72.3351 13.9768 71.8962 13.4796 71.4455C12.9823 70.9949 12.4948 70.5307 12.0209 70.0568C11.545 69.5809 11.0828 69.0954 10.6321 68.5981C10.1796 68.099 9.74257 67.592 9.31527 67.0715C8.8899 66.5529 8.4762 66.0246 8.07608 65.4846C7.67597 64.9447 7.28945 64.3969 6.91653 63.8376C6.54361 63.2801 6.18428 62.711 5.83855 62.1361C5.49282 61.5592 5.16263 60.9766 4.84604 60.3842C4.52944 59.7917 4.22839 59.1916 3.94093 58.5836C3.65347 57.9776 3.38154 57.3639 3.12516 56.7423C2.86683 56.1227 2.62599 55.4954 2.39874 54.8641C2.17343 54.2309 1.96172 53.5939 1.76749 52.951C1.57326 52.3081 1.39263 51.6613 1.22948 51.0087C1.06632 50.358 0.92065 49.7034 0.788574 49.045C0.65844 48.3846 0.543844 47.7242 0.444787 47.06C0.345729 46.3957 0.264153 45.7295 0.198115 45.0613C0.132077 44.3913 0.0835193 43.7231 0.0504998 43.0511C0.0174808 42.381 0 41.7089 0 41.0388C0 40.3668 0.0174808 39.6948 0.0504998 39.0247C0.0835193 38.3546 0.132077 37.6845 0.198115 37.0163C0.264153 36.3482 0.345729 35.68 0.444787 35.0158C0.543844 34.3515 0.65844 33.6911 0.788574 33.0327C0.92065 32.3742 1.06632 31.7178 1.22948 31.0671C1.39263 30.4145 1.57326 29.7677 1.76749 29.1248C1.96172 28.4819 2.17343 27.8448 2.39874 27.2136C2.62599 26.5804 2.86683 25.9549 3.12516 25.3334C3.38154 24.7138 3.65347 24.1001 3.94093 23.4921C4.22839 22.8842 4.52944 22.2859 4.84604 21.6935C5.16263 21.1011 5.49282 20.5165 5.83855 19.9396C6.18428 19.3647 6.54361 18.7976 6.91653 18.2382C7.28945 17.6808 7.67597 17.1311 8.07608 16.5911C8.4762 16.0531 8.8899 15.5229 9.31527 15.0043C9.74257 14.4857 10.1796 13.9768 10.6321 13.4796C11.0828 12.9804 11.545 12.4948 12.0209 12.0209C12.4948 11.545 12.9823 11.0828 13.4796 10.6302C13.9768 10.1796 14.4857 9.74063 15.0043 9.31527C15.5229 8.88991 16.0531 8.47619 16.5931 8.07608C17.1311 7.67597 17.6808 7.28945 18.2382 6.91653C18.7976 6.54361 19.3647 6.18428 19.9416 5.83855C20.5165 5.49282 21.1011 5.16263 21.6935 4.84604C22.2859 4.52944 22.8861 4.22839 23.4921 3.94093C24.1001 3.65347 24.7138 3.38154 25.3334 3.12322C25.9549 2.86683 26.5804 2.62599 27.2136 2.39874C27.8448 2.17343 28.4838 1.96172 29.1248 1.76749C29.7677 1.57326 30.4164 1.39263 31.0671 1.22948C31.7178 1.06632 32.3742 0.92065 33.0327 0.788574C33.6911 0.658439 34.3535 0.543844 35.0177 0.444787C35.682 0.345729 36.3482 0.264153 37.0163 0.198115C37.6845 0.132076 38.3546 0.0835188 39.0247 0.0504998C39.6948 0.0174808 40.3668 0 41.0388 0C41.7109 0 42.381 0.0174808 43.0511 0.0504998C43.7231 0.0835188 44.3932 0.132076 45.0613 0.198115C45.7295 0.264153 46.3957 0.345729 47.06 0.444787C47.7242 0.543844 48.3866 0.658439 49.045 0.788574C49.7034 0.92065 50.358 1.06632 51.0106 1.22948C51.6613 1.39263 52.3081 1.57326 52.951 1.76749C53.5939 1.96172 54.2309 2.17343 54.8641 2.39874C55.4954 2.62599 56.1227 2.86683 56.7423 3.12322C57.3639 3.38154 57.9776 3.65347 58.5836 3.94093C59.1916 4.22839 59.7917 4.52944 60.3842 4.84604C60.9766 5.16263 61.5592 5.49282 62.1361 5.83855C62.713 6.18428 63.2801 6.54361 63.8376 6.91653C64.3969 7.28945 64.9447 7.67597 65.4846 8.07608C66.0246 8.47619 66.5529 8.88991 67.0734 9.31527C67.592 9.74063 68.1009 10.1796 68.5981 10.6302C69.0954 11.0828 69.5809 11.545 70.0568 12.0209C70.5307 12.4948 70.9949 12.9804 71.4455 13.4796C71.8962 13.9768 72.3351 14.4857 72.7605 15.0043C73.1878 15.5229 73.5996 16.0531 73.9997 16.5911C74.3998 17.1311 74.7863 17.6808 75.1592 18.2382C75.5341 18.7976 75.8934 19.3647 76.2372 19.9396C76.5829 20.5165 76.9131 21.1011 77.2297 21.6935C77.5463 22.2859 77.8493 22.8842 78.1368 23.4921C78.4242 24.1001 78.6962 24.7138 78.9525 25.3334C79.2089 25.9549 79.4517 26.5804 79.677 27.2136C79.9043 27.8448 80.114 28.4819 80.3083 29.1248C80.5044 29.7677 80.6831 30.4145 80.8463 31.0671C81.0094 31.7178 81.157 32.3742 81.2872 33.0327C81.4193 33.6911 81.5338 34.3515 81.6329 35.0158C81.73 35.68 81.8135 36.3482 81.8796 37.0163C81.9437 37.6845 81.9942 38.3546 82.0272 39.0247C82.0602 39.6948 82.0758 40.3668 82.0758 41.0388Z" fill="#E5F2FE"/>
</g>
<path fill-rule="evenodd" clip-rule="evenodd" d="M40.876 58.684H22.0804C20.9325 58.684 20.0293 57.7808 20.0293 56.631V32.3367C20.0293 31.2704 20.9325 30.3672 22.0804 30.3672H24.1334V32.83H23.3953C23.1486 32.83 22.902 32.9932 22.902 33.3214V38.6569C22.902 38.9036 23.1486 39.1503 23.3953 39.1503H39.4814C39.8097 39.1503 39.9728 38.9036 39.9728 38.6569V33.3214C39.9728 32.9932 39.7281 32.83 39.4814 32.83H38.7434V30.3672H40.876C41.9443 30.3672 42.8455 31.2704 42.8455 32.3367V56.631C42.8455 57.7808 41.9443 58.684 40.876 58.684ZM24.1334 33.8148H23.8867V38.1655H38.9881V33.8148H38.7434V36.5243C38.7434 37.2624 38.1684 37.8373 37.4284 37.8373H25.3648C24.7083 37.8373 24.1334 37.2624 24.1334 36.5243V33.8148ZM30.6168 44.6489H23.4769C23.1486 44.6489 22.9835 44.4838 22.9835 44.1556V40.7915C22.9835 40.5448 23.1486 40.2982 23.4769 40.2982H30.6168C30.8634 40.2982 31.1101 40.5448 31.1101 40.7915V44.1556C31.1101 44.4838 30.8634 44.6489 30.6168 44.6489ZM23.9683 43.6642H30.1254V41.2829H23.9683V43.6642ZM39.4814 44.6489H32.3415C32.0949 44.6489 31.8482 44.4838 31.8482 44.1556V40.7915C31.8482 40.5448 32.0949 40.2982 32.3415 40.2982H39.4814C39.8097 40.2982 39.9728 40.5448 39.9728 40.7915V44.1556C39.9728 44.4838 39.8097 44.6489 39.4814 44.6489ZM32.8329 43.6642H38.9881V41.2829H32.8329V43.6642ZM30.6168 50.5574H23.3953C23.1486 50.5574 22.902 50.3942 22.902 50.066V46.7C22.902 46.4553 23.1486 46.2086 23.3953 46.2086H30.6168C30.8634 46.2086 31.1101 46.4553 31.1101 46.7V50.066C31.1101 50.3942 30.8634 50.5574 30.6168 50.5574ZM23.8867 49.5726H30.1254V47.1933H23.8867V49.5726ZM39.4814 50.5574H32.258C32.0113 50.5574 31.7666 50.3942 31.7666 50.066V46.7C31.7666 46.4553 32.0113 46.2086 32.258 46.2086H39.4814C39.7281 46.2086 39.9728 46.4553 39.9728 46.7V50.066C39.9728 50.3942 39.7281 50.5574 39.4814 50.5574ZM32.7514 49.5726H38.9881V47.1933H32.7514V49.5726ZM30.5352 56.4678H23.3953C23.1486 56.4678 22.902 56.2211 22.902 55.9745V52.6104C22.902 52.2822 23.1486 52.1171 23.3953 52.1171H30.5352C30.7819 52.1171 31.0266 52.2822 31.0266 52.6104V55.9745C31.0266 56.2211 30.7819 56.4678 30.5352 56.4678ZM23.8867 55.4831H30.0419V53.1018H23.8867V55.4831ZM39.3999 56.4678H32.258C32.0113 56.4678 31.7666 56.2211 31.7666 55.9745V52.6104C31.7666 52.2822 32.0113 52.1171 32.258 52.1171H39.3999C39.7281 52.1171 39.8913 52.2822 39.8913 52.6104V55.9745C39.8913 56.2211 39.7281 56.4678 39.3999 56.4678ZM32.7514 55.4831H38.9065V53.1018H32.7514V55.4831Z" fill="#273E76"/>
<path fill-rule="evenodd" clip-rule="evenodd" d="M37.4261 37.0178H25.3625C25.1158 37.0178 24.8691 36.7711 24.8691 36.5264L24.9507 23.8859C24.9507 23.6393 25.1158 23.3926 25.4441 23.3926H37.4261C37.7544 23.3926 37.9195 23.6393 37.9195 23.8859V36.5264C37.9195 36.7711 37.7544 37.0178 37.4261 37.0178Z" fill="#273E76"/>
<path fill-rule="evenodd" clip-rule="evenodd" d="M61.5565 51.5486H57.9458C57.9458 51.3019 57.9458 51.0553 57.9458 51.0553C57.9458 49.2489 59.3404 47.8544 61.1467 47.8544H62.0499V51.0553C62.0499 51.3019 61.8032 51.5486 61.5565 51.5486ZM49.491 49.7423C46.6999 49.7423 44.4857 47.5261 44.4857 44.735C44.4857 42.0275 46.6999 39.7297 49.491 39.7297C52.282 39.7297 54.4982 42.0275 54.4982 44.735C54.4982 47.5261 52.282 49.7423 49.491 49.7423ZM49.491 40.7145C47.2748 40.7145 45.4704 42.5189 45.4704 44.735C45.4704 46.9512 47.2748 48.7575 49.491 48.7575C51.7071 48.7575 53.5135 46.9512 53.5135 44.735C53.5135 42.5189 51.7071 40.7145 49.491 40.7145ZM58.6023 45.2284H55.1547C54.8265 45.2284 54.6614 45.0633 54.6614 44.735C54.6614 44.4883 54.8265 44.2436 55.1547 44.2436H58.6023C58.849 44.2436 59.0937 44.4883 59.0937 44.735C59.0937 45.0633 58.849 45.2284 58.6023 45.2284ZM49.491 48.3477C49.2443 48.3477 48.9996 48.101 48.9996 47.8544V47.4445C48.3431 47.2794 47.8497 46.6229 47.8497 45.8849C47.8497 45.6382 48.0964 45.3915 48.3431 45.3915C48.5878 45.3915 48.8345 45.6382 48.8345 45.8849C48.8345 46.048 48.916 46.2131 48.9996 46.3763V45.1448C48.3431 44.9817 47.8497 44.3252 47.8497 43.5871C47.8497 42.8471 48.3431 42.2722 48.9996 42.0275V41.6992C48.9996 41.4525 49.2443 41.2059 49.491 41.2059C49.7376 41.2059 49.9843 41.4525 49.9843 41.6992V42.0275C50.6408 42.2722 51.1322 42.8471 51.1322 43.5871C51.1322 43.9154 50.8875 44.0785 50.6408 44.0785C50.3941 44.0785 50.1475 43.9154 50.1475 43.5871C50.1475 43.422 50.0659 43.2589 49.9843 43.1754V44.3252C50.6408 44.5719 51.1322 45.1448 51.1322 45.8849C51.1322 46.6229 50.6408 47.2794 49.9843 47.4445V47.8544C49.9843 48.101 49.7376 48.3477 49.491 48.3477ZM48.9996 44.0785V43.1754C48.916 43.2589 48.8345 43.422 48.8345 43.5871C48.8345 43.7503 48.916 43.9154 48.9996 44.0785ZM49.9843 45.475V46.3763C50.0659 46.2131 50.1475 46.048 50.1475 45.8849C50.1475 45.7198 50.0659 45.5566 49.9843 45.475ZM56.961 51.5486H43.6641V37.8418H57.3709C57.3709 38.0865 57.3709 38.2516 57.3709 38.3332C57.3709 40.6309 59.2588 42.5189 61.5565 42.5189C61.5565 42.5189 61.7216 42.5189 62.0499 42.5189V46.8696H61.1467C58.849 46.8696 56.961 48.7575 56.961 51.0553C56.961 51.0553 56.961 51.3019 56.961 51.5486ZM58.3556 37.8418H61.5565C61.8032 37.8418 62.0499 38.005 62.0499 38.3332V41.5341C61.7216 41.5341 61.5565 41.5341 61.5565 41.5341C59.7502 41.5341 58.3556 40.058 58.3556 38.3332V38.2516C58.3556 38.2516 58.3556 38.0865 58.3556 37.8418Z" fill="#273E76"/>
<path fill-rule="evenodd" clip-rule="evenodd" d="M50.8065 35.3689H47.6056C47.3609 35.3689 47.1142 35.1222 47.1142 34.8755V30.2801H45.473C45.3079 30.2801 45.1447 30.1985 45.0612 30.0334C44.9796 29.8702 44.9796 29.7051 45.0612 29.542L48.5903 23.3033C48.7554 23.1402 48.9186 23.0566 49.0837 23.0566C49.2488 23.0566 49.4119 23.1402 49.4935 23.3033L53.0227 29.542C53.1878 29.7051 53.1878 29.8702 53.0227 30.0334C52.9411 30.1985 52.7779 30.2801 52.6128 30.2801H51.2998V34.8755C51.2998 35.1222 51.0532 35.3689 50.8065 35.3689Z" fill="#273E76"/>
<path fill-rule="evenodd" clip-rule="evenodd" d="M59.8065 24.0569H56.6056C56.3609 24.0569 56.1142 24.3036 56.1142 24.5502V29.1457H54.473C54.3079 29.1457 54.1447 29.2273 54.0612 29.3924C53.9796 29.5556 53.9796 29.7206 54.0612 29.8838L57.5903 36.1225C57.7554 36.2856 57.9186 36.3691 58.0837 36.3691C58.2488 36.3691 58.4119 36.2856 58.4935 36.1225L62.0227 29.8838C62.1878 29.7206 62.1878 29.5556 62.0227 29.3924C61.9411 29.2273 61.7779 29.1457 61.6128 29.1457H60.2998V24.5502C60.2998 24.3036 60.0532 24.0569 59.8065 24.0569Z" fill="#273E76"/>
</svg>
