<svg width="74" height="82" viewBox="0 0 74 82" fill="none" xmlns="http://www.w3.org/2000/svg">
<path fill-rule="evenodd" clip-rule="evenodd" d="M19.6657 6.29102H60.67C62.2245 6.29102 63.4979 7.56434 63.4979 9.11763V34.2354C63.4979 35.7899 62.2245 37.0633 60.67 37.0633H19.6657C18.1112 37.0633 16.8379 35.7899 16.8379 34.2354V9.11763C16.8379 7.56434 18.1112 6.29102 19.6657 6.29102Z" fill="#64B9FC"/>
<path fill-rule="evenodd" clip-rule="evenodd" d="M16.8379 13.3594H63.4979V19.7727H16.8379V13.3594Z" fill="#407093"/>
<path fill-rule="evenodd" clip-rule="evenodd" d="M51.0469 24.8301H59.0945V32.8752H51.0469V24.8301Z" fill="#FFD54F"/>
<path fill-rule="evenodd" clip-rule="evenodd" d="M1.0957 58.5932L10.4265 49.2637L32.768 71.5991L23.436 80.9286L1.0957 58.5932Z" fill="#407093"/>
<path fill-rule="evenodd" clip-rule="evenodd" d="M13.7285 52.5598L21.5981 45.3914C26.8265 41.246 31.8768 41.1736 36.765 44.9776H48.2532C50.9398 44.9776 53.1402 47.178 53.1402 49.8634C53.1402 50.7094 52.9229 51.537 52.5042 52.2725L63.5651 41.4511C65.72 39.3416 69.2072 39.3821 71.3168 41.537C73.4263 43.6908 73.3858 47.178 71.2308 49.2863L63.3612 56.9864L57.8369 62.3916C56.3917 63.8 54.6505 64.5097 52.6319 64.5134L32.196 64.5232L28.9446 67.7722L13.7285 52.5598Z" fill="#FFCEBF"/>
<path fill-rule="evenodd" clip-rule="evenodd" d="M21.9441 22.1569C27.7508 22.1569 32.4868 17.421 32.4868 11.6155C32.4868 5.80753 27.7508 1.07031 21.9441 1.07031C16.1337 1.07031 11.3965 5.80753 11.3965 11.6155C11.3965 17.421 16.1337 22.1569 21.9441 22.1569Z" fill="#05E39C"/>
<path fill-rule="evenodd" clip-rule="evenodd" d="M21.9751 4.86719L23.8979 8.96344L28.3945 9.53073L25.089 12.6263L25.9399 17.0725L21.9751 14.8905L18.0114 17.0725L18.8611 12.6263L15.5605 9.53073L20.0522 8.96344L21.9751 4.86719Z" fill="#FFD54F"/>
<path fill-rule="evenodd" clip-rule="evenodd" d="M21.9766 4.86719V14.8905L25.9414 17.0725L25.0905 12.6263L28.396 9.53073L23.8994 8.96344L21.9766 4.86719Z" fill="#FFC328"/>
<mask id="mask0_6708_2559" style="mask-type:luminance" maskUnits="userSpaceOnUse" x="0" y="0" width="74" height="82">
<path d="M0 0H73.9573V82H0V0Z" fill="white"/>
</mask>
<g mask="url(#mask0_6708_2559)">
<path d="M59.0648 23.7291H51.027C50.4081 23.7291 49.9059 24.2313 49.9059 24.8501V32.8855C49.9059 33.5043 50.4081 34.0065 51.027 34.0065H59.0648C59.6836 34.0065 60.1858 33.5043 60.1858 32.8855V24.8501C60.1858 24.2313 59.6836 23.7291 59.0648 23.7291ZM57.9425 31.7632H52.1493V25.9712H57.9425V31.7632ZM38.7763 26.8295C38.7763 27.4483 38.2741 27.9506 37.6552 27.9506H21.6349C21.016 27.9506 20.5138 27.4483 20.5138 26.8295C20.5138 26.2106 21.016 25.7084 21.6349 25.7084H37.6552C38.2741 25.7084 38.7763 26.2094 38.7763 26.8295ZM32.7915 30.9061C32.7915 31.525 32.2893 32.0272 31.6705 32.0272H21.6349C21.016 32.0272 20.5138 31.525 20.5138 30.9061C20.5138 30.2872 21.016 29.785 21.6349 29.785H31.6705C32.2893 29.785 32.7915 30.286 32.7915 30.9061ZM72.0755 40.7538C69.5301 38.1544 65.3455 38.1077 62.7485 40.6494L54.1851 49.0249C53.7799 46.1074 51.2676 43.853 48.2397 43.853H37.1432C34.5904 41.9498 31.948 41.019 29.2908 41.0829C26.517 41.1492 23.7014 42.3022 20.9202 44.5087C20.8994 44.5247 20.881 44.5419 20.8613 44.5591L13.7911 50.9994L11.253 48.4625C10.8159 48.0242 10.105 48.0242 9.66782 48.4625L0.349332 57.7773C0.139362 57.9885 0.0214844 58.2734 0.0214844 58.5706C0.0214844 58.8677 0.139362 59.1526 0.349332 59.3638L22.6626 81.6709C22.8738 81.8821 23.1587 82 23.4558 82C23.7542 82 24.0391 81.8821 24.2491 81.6709L33.5663 72.3512C34.0047 71.9129 34.0047 71.2031 33.5663 70.766L30.5408 67.7405L32.6663 65.6162L52.6146 65.6076C54.9292 65.6015 56.9405 64.7812 58.5908 63.1666L71.9724 50.0784C73.2273 48.8505 73.9297 47.2027 73.9493 45.437C73.9702 43.6713 73.3047 42.0087 72.0755 40.7538ZM23.4558 79.2925L2.72899 58.5706L10.461 50.841L31.1879 71.5592L23.4558 79.2925ZM70.4032 48.476L57.0228 61.5642C55.7875 62.7724 54.3435 63.3606 52.611 63.3643L32.2009 63.3741C31.9038 63.3741 31.6189 63.492 31.4089 63.7019L28.9544 66.1553L15.3788 52.587L22.3434 46.2425C27.0929 42.4888 31.5845 42.3636 36.0761 45.8594C36.2726 46.0129 36.5157 46.0964 36.765 46.0964H48.2397C50.3123 46.0964 51.9995 47.7823 51.9995 49.855C51.9995 49.9299 51.9958 50.006 51.9921 50.0809C51.9909 50.0981 51.9884 50.1153 51.9872 50.1325C51.9823 50.1939 51.9774 50.2565 51.9688 50.3179C51.9675 50.3302 51.9663 50.3424 51.9651 50.3559C51.9 50.8287 51.7453 51.2879 51.5071 51.7029C51.496 51.7226 51.4862 51.7435 51.4764 51.7631C50.8219 52.8694 49.6161 53.6135 48.2397 53.6135H32.2021C31.582 53.6135 31.0798 54.1158 31.0798 54.7346C31.0798 55.3547 31.582 55.8569 32.2021 55.8569H48.2397C50.4179 55.8569 52.3285 54.6904 53.3809 52.9493L64.3165 42.2531C66.0318 40.5758 68.7934 40.6065 70.4731 42.3231C71.2823 43.1494 71.7207 44.2459 71.7072 45.4124C71.6937 46.5789 71.2308 47.6669 70.4032 48.476ZM15.741 21.498V34.2423C15.741 36.4181 17.5116 38.1875 19.6874 38.1875H60.6402C62.816 38.1875 64.5854 36.4181 64.5854 34.2423V9.15641C64.5854 6.98058 62.816 5.21118 60.6402 5.21118H31.6643C29.5744 2.07269 26.0037 0 21.9578 0C15.5335 0 10.3063 5.22715 10.3063 11.6527C10.3063 15.7919 12.4785 19.4314 15.741 21.498ZM60.6402 35.9454H19.6874C18.7481 35.9454 17.9843 35.1816 17.9843 34.2423V22.6031C19.2257 23.0549 20.5629 23.3017 21.9578 23.3017C24.6076 23.3017 27.0511 22.4128 29.0108 20.9184H62.342V34.2423C62.3433 35.1816 61.5783 35.9454 60.6402 35.9454ZM33.2569 14.5125H62.3433V18.6763H31.2493C32.1776 17.4533 32.8689 16.0437 33.2569 14.5125ZM60.6402 7.45332C61.5783 7.45332 62.3433 8.21707 62.3433 9.15641V12.2703H33.597C33.6081 12.0665 33.6142 11.8602 33.6142 11.6527C33.6142 10.1731 33.333 8.75734 32.8284 7.45455H60.6402V7.45332ZM21.9578 2.24213C27.1481 2.24213 31.3709 6.46364 31.3709 11.6527C31.3709 16.8393 27.1481 21.0596 21.9578 21.0596C16.77 21.0596 12.5497 16.8393 12.5497 11.6527C12.5497 6.46364 16.77 2.24213 21.9578 2.24213ZM16.9333 16.8897C16.851 17.317 17.0241 17.7529 17.3753 18.0083C17.5705 18.1495 17.8026 18.222 18.0347 18.222C18.2201 18.222 18.4067 18.1753 18.575 18.0832L21.9934 16.2008L25.4131 18.0832C25.7938 18.2919 26.2604 18.2625 26.6128 18.0083C26.9639 17.7529 27.1371 17.317 27.0548 16.8897L26.3218 13.0562L29.168 10.3868C29.4848 10.0896 29.6015 9.63651 29.4676 9.22271C29.3338 8.81014 28.9728 8.51176 28.5418 8.45651L24.6678 7.96658L23.0089 4.43515C22.8247 4.04223 22.4293 3.79051 21.9947 3.79051C21.56 3.79051 21.1646 4.041 20.9792 4.43393L19.3166 7.96658L15.4414 8.45651C15.0104 8.51176 14.6494 8.81014 14.5155 9.22394C14.3817 9.63651 14.4984 10.0908 14.8164 10.388L17.6663 13.0574L16.9333 16.8897ZM20.2093 10.1142C20.5899 10.0663 20.9202 9.82684 21.0836 9.47934L21.9922 7.54787L22.8996 9.47812C23.0629 9.82684 23.392 10.0663 23.7739 10.1142L25.8944 10.3831L24.3375 11.843C24.0563 12.1058 23.931 12.4938 24.0023 12.872L24.4038 14.968L22.5349 13.9391C22.3667 13.847 22.1801 13.8003 21.9934 13.8003C21.808 13.8003 21.6214 13.847 21.4532 13.9391L19.5843 14.968L19.9846 12.872C20.057 12.4938 19.9306 12.1058 19.6506 11.843L18.0912 10.3818L20.2093 10.1142Z" fill="black"/>
</g>
</svg>
