<svg width="84" height="82" viewBox="0 0 84 82" fill="none" xmlns="http://www.w3.org/2000/svg">
<path fill-rule="evenodd" clip-rule="evenodd" d="M36.0711 64.6055H55.1906L63.8301 80.8395H27.4316L36.0711 64.6055Z" fill="#8F8B81"/>
<path d="M13.1509 25.1172H78.1114C80.2774 25.1172 82.0358 26.8755 82.0358 29.0403V64.2502C82.0358 66.4149 80.2774 68.1733 78.1114 68.1733H13.1509C10.9849 68.1733 9.22656 66.4149 9.22656 64.2502V29.0403C9.22656 26.8755 10.9849 25.1172 13.1509 25.1172Z" fill="#C9F0FF"/>
<path d="M18.7832 55.2012H22.8451V61.5273H18.7832V55.2012Z" fill="#FF6372"/>
<path d="M27.0566 51.6211H31.1185V61.5265H27.0566V51.6211Z" fill="#FFD54F"/>
<path d="M35.3262 43.4648H39.388V61.5272H35.3262V43.4648Z" fill="#6CE75A"/>
<path d="M43.5996 52.9043H47.6615V61.5229H43.5996V52.9043Z" fill="#FF6372"/>
<path d="M51.873 47.0664H55.9337V61.5249H51.873V47.0664Z" fill="#6CE75A"/>
<path d="M60.1426 40.3281H64.2045V61.524H60.1426V40.3281Z" fill="#43A2FF"/>
<path d="M68.4199 42.4766H72.4818V61.5286H68.4199V42.4766Z" fill="#FFD54F"/>
<path d="M34.6788 17.4347C34.696 17.9835 34.685 18.5312 34.6469 19.0788C34.6088 19.6265 34.545 20.1717 34.4529 20.7132C34.362 21.2547 34.2442 21.79 34.1005 22.3205C33.9568 22.8497 33.7874 23.3715 33.5921 23.8848C33.3969 24.3981 33.1771 24.9003 32.9315 25.3914C32.6872 25.8838 32.4195 26.3615 32.1273 26.8268C31.8363 27.2922 31.5219 27.7429 31.1867 28.1763C30.8503 28.611 30.4942 29.0285 30.1172 29.4275C29.7402 29.8278 29.3449 30.2072 28.9311 30.5682C28.5173 30.928 28.0863 31.2681 27.6381 31.5862C27.1911 31.9042 26.7294 32.2001 26.2518 32.4727C25.7754 32.7465 25.2867 32.9946 24.7857 33.2205C24.2847 33.4452 23.7739 33.6453 23.2533 33.8197C22.7327 33.9941 22.2047 34.1426 21.6693 34.2654C21.1339 34.3882 20.5937 34.4852 20.0485 34.5552C19.5045 34.6252 18.9569 34.6682 18.408 34.6841C17.8591 34.7001 17.3103 34.689 16.7626 34.651C16.215 34.6141 15.6698 34.5491 15.1283 34.4582C14.5868 34.3673 14.0502 34.2495 13.521 34.1058C12.9905 33.9609 12.4687 33.7915 11.9554 33.5962C11.4422 33.4022 10.94 33.1824 10.4476 32.9368C9.95519 32.6925 9.47754 32.4248 9.01216 32.1338C8.54679 31.8416 8.09616 31.5284 7.66148 31.192C7.22681 30.8568 6.80932 30.5007 6.41026 30.1237C6.00996 29.7468 5.63054 29.3526 5.26954 28.9376C4.90854 28.5238 4.56964 28.0928 4.25039 27.6458C3.93237 27.1989 3.63644 26.7372 3.36385 26.2608C3.09003 25.7844 2.84077 25.2957 2.61606 24.7947C2.39136 24.2937 2.19121 23.7829 2.01685 23.2623C1.84126 22.7416 1.69269 22.2136 1.5699 21.6783C1.44711 21.1441 1.3501 20.6039 1.28134 20.0587C1.21135 19.5147 1.16838 18.9683 1.15241 18.4195C1.13522 17.8706 1.14627 17.3217 1.18434 16.7741C1.2224 16.2264 1.28625 15.6825 1.37835 15.141C1.46921 14.5995 1.58709 14.0629 1.73075 13.5337C1.87442 13.0032 2.04387 12.4826 2.2391 11.9693C2.43434 11.4561 2.65413 10.9539 2.89848 10.4615C3.14406 9.97031 3.41174 9.49143 3.70275 9.02606C3.99499 8.56069 4.3081 8.11128 4.64454 7.6766C4.97976 7.24193 5.33708 6.82567 5.71404 6.42538C6.08978 6.02631 6.48639 5.64567 6.90019 5.28589C7.31399 4.92489 7.74498 4.58599 8.19316 4.26674C8.64011 3.94872 9.1018 3.65279 9.57822 3.3802C10.0559 3.10761 10.5446 2.85835 11.0456 2.63364C11.5465 2.40894 12.0573 2.20879 12.578 2.03443C13.0986 1.85884 13.6266 1.71027 14.162 1.58748C14.6973 1.46469 15.2376 1.36768 15.7828 1.29892C16.3267 1.22893 16.8744 1.18595 17.4232 1.16999C17.9721 1.1528 18.521 1.16385 19.0686 1.20192C19.6163 1.23998 20.1614 1.30383 20.7029 1.39592C21.2444 1.48679 21.7798 1.60467 22.3103 1.74833C22.8407 1.89199 23.3626 2.06144 23.8758 2.25668C24.3891 2.45191 24.8913 2.67171 25.3837 2.91606C25.8748 3.16041 26.3537 3.42809 26.8191 3.72033C27.2845 4.01134 27.7351 4.32568 28.1698 4.6609C28.6044 4.99611 29.0219 5.3522 29.421 5.72916C29.8213 6.10613 30.2007 6.50151 30.5617 6.91531C30.9227 7.32911 31.2616 7.7601 31.5809 8.20705C31.8989 8.65524 32.1948 9.11692 32.4674 9.59335C32.7412 10.0698 32.9893 10.5585 33.2152 11.0595C33.4399 11.5604 33.64 12.0712 33.8144 12.5906C33.9888 13.1113 34.1386 13.6393 34.2614 14.1746C34.3841 14.71 34.4799 15.249 34.5499 15.7942C34.6199 16.3394 34.6629 16.8858 34.6788 17.4347Z" fill="#6CE75A"/>
<path d="M30.3139 17.5808C30.3249 17.9873 30.3164 18.3925 30.2881 18.7977C30.2586 19.2029 30.2108 19.6056 30.142 20.0059C30.0745 20.4062 29.9873 20.8016 29.8792 21.1933C29.7724 21.585 29.6472 21.9706 29.501 22.35C29.3561 22.7294 29.1941 23.1002 29.0123 23.4637C28.8306 23.8259 28.6317 24.1795 28.4156 24.5233C28.1995 24.8672 27.9674 25.1999 27.7181 25.5204C27.4689 25.8409 27.2049 26.1491 26.9261 26.4438C26.6474 26.7397 26.3539 27.0197 26.047 27.2861C25.7412 27.5526 25.422 27.803 25.0904 28.0376C24.7589 28.2721 24.4175 28.4907 24.0639 28.692C23.7115 28.8922 23.3493 29.0764 22.9785 29.2421C22.6076 29.4079 22.2307 29.5553 21.8451 29.683C21.4596 29.8119 21.0691 29.9212 20.6725 30.012C20.2771 30.1017 19.878 30.1729 19.4753 30.2232C19.0713 30.2748 18.6673 30.3055 18.2609 30.3165C17.8557 30.3276 17.4493 30.319 17.044 30.2908C16.6388 30.2625 16.2361 30.2134 15.8358 30.1459C15.4355 30.0771 15.0401 29.9899 14.6484 29.8831C14.2567 29.7763 13.8712 29.6498 13.4917 29.5049C13.1123 29.36 12.7403 29.1967 12.3768 29.0162C12.0134 28.8345 11.6597 28.6356 11.3159 28.4195C10.9721 28.2033 10.6406 27.9713 10.3189 27.722C9.99839 27.474 9.69019 27.21 9.39549 26.9312C9.09957 26.6513 8.81961 26.359 8.55316 26.0521C8.28671 25.7463 8.03622 25.4271 7.80169 25.0955C7.56593 24.764 7.34859 24.4227 7.14722 24.0703C6.94585 23.7178 6.76166 23.3556 6.5959 22.9848C6.43013 22.614 6.28278 22.237 6.15508 21.8514C6.02615 21.4659 5.91687 21.0754 5.82601 20.68C5.73637 20.2847 5.66515 19.8856 5.61481 19.4816C5.56324 19.0789 5.53254 18.6749 5.52026 18.2697C5.50921 17.8632 5.5178 17.458 5.54727 17.0528C5.57552 16.6476 5.6234 16.2449 5.69217 15.8446C5.7597 15.4455 5.84811 15.0489 5.95493 14.6572C6.06176 14.2655 6.18823 13.88 6.33313 13.5005C6.47802 13.1223 6.64133 12.7503 6.82183 12.3868C7.00356 12.0246 7.20248 11.671 7.41858 11.3272C7.63469 10.9834 7.86799 10.6506 8.11603 10.3301C8.36529 10.0096 8.62929 9.70143 8.90802 9.40674C9.18798 9.11204 9.48022 8.83085 9.78719 8.5644C10.0942 8.29918 10.4122 8.04746 10.7437 7.81293C11.0753 7.5784 11.4178 7.35984 11.7702 7.15969C12.1226 6.95832 12.4849 6.77413 12.8557 6.60837C13.2265 6.4426 13.6047 6.29525 13.989 6.16755C14.3746 6.03862 14.7651 5.92934 15.1617 5.83848C15.5571 5.74884 15.9574 5.67762 16.3601 5.62728C16.7629 5.57571 17.1668 5.54501 17.5733 5.53396C17.9797 5.52291 18.3849 5.5315 18.7901 5.55974C19.1953 5.58799 19.5981 5.6371 19.9984 5.70464C20.3987 5.7734 20.794 5.86058 21.187 5.96741C21.5787 6.07423 21.9642 6.20071 22.3436 6.3456C22.7231 6.49049 23.0939 6.6538 23.4573 6.8343C23.8208 7.01603 24.1744 7.21495 24.5182 7.43106C24.862 7.64716 25.1948 7.87924 25.5153 8.1285C25.8358 8.37653 26.144 8.64053 26.4399 8.92049C26.7346 9.19922 27.0145 9.49146 27.281 9.79844C27.5475 10.1054 27.7979 10.4234 28.0337 10.755C28.2682 11.0865 28.4868 11.4279 28.6882 11.7803C28.8883 12.1327 29.0725 12.4949 29.2383 12.8657C29.404 13.2365 29.5514 13.6135 29.6803 13.9991C29.808 14.3846 29.9185 14.7751 30.0082 15.1705C30.099 15.5659 30.169 15.9661 30.2206 16.3689C30.2709 16.7716 30.3028 17.1756 30.3139 17.5808Z" fill="#F0F0F0"/>
<mask id="mask0_6708_2523" style="mask-type:luminance" maskUnits="userSpaceOnUse" x="0" y="0" width="84" height="82">
<path d="M0 0H83.1788V82H0V0Z" fill="white"/>
</mask>
<g mask="url(#mask0_6708_2523)">
<path fill-rule="evenodd" clip-rule="evenodd" d="M58.9912 69.3199L64.8385 80.3083C65.2449 81.0733 64.6813 81.9869 63.8279 81.9869H27.4294C26.5773 81.9869 25.994 81.0745 26.4385 80.2727L32.2673 69.3199H13.149C10.3593 69.3199 8.08028 67.0422 8.08028 64.2536V32.8969C-1.38678 26.6702 -2.79886 13.3046 5.2463 5.26314C12.2428 -1.73094 23.5849 -1.73094 30.5814 5.26314C35.4414 10.1207 37.1421 17.3996 34.7796 23.9775H78.1095C80.8993 23.9775 83.1783 26.2552 83.1783 29.0438V64.2536C83.1783 67.0422 80.8993 69.3199 78.1095 69.3199H58.9912ZM28.5284 19.0696C27.8973 19.0696 27.3852 18.5575 27.3852 17.9264C27.3852 17.294 27.8973 16.782 28.5284 16.782H29.1141C28.5787 11.48 24.3622 7.26584 19.0577 6.73047V7.31618C19.0577 7.94732 18.5456 8.45935 17.9145 8.45935C17.2821 8.45935 16.7701 7.94732 16.7701 7.31618V6.73047C11.4656 7.26584 7.25022 11.48 6.71486 16.782H7.29934C7.93171 16.782 8.44374 17.294 8.44374 17.9264C8.44374 18.5575 7.93171 19.0696 7.29934 19.0696H6.71486C7.25022 24.3716 11.4656 28.5858 16.7701 29.1211V28.5366C16.7701 27.9043 17.2821 27.3922 17.9145 27.3922C18.5456 27.3922 19.0577 27.9043 19.0577 28.5366V29.1211C24.3622 28.5858 28.5787 24.3716 29.1141 19.0696H28.5284ZM16.7701 17.9264V17.9559L16.7713 17.9854C16.7725 17.9952 16.7725 18.0038 16.7738 18.0136L16.7762 18.0431C16.7775 18.0529 16.7787 18.0615 16.7799 18.0713L16.7836 18.1008L16.7885 18.129L16.7934 18.156C16.7959 18.1659 16.7971 18.1757 16.7996 18.1843L16.8069 18.2113C16.8094 18.2211 16.8118 18.2297 16.8143 18.2395L16.8217 18.2665L16.8303 18.2923L16.8401 18.3193C16.8425 18.3279 16.8462 18.3365 16.8499 18.3451L16.8597 18.3709L16.872 18.3967C16.8757 18.4053 16.8794 18.4139 16.8831 18.4225L16.8953 18.447L16.9088 18.4716L16.9223 18.4949L16.9359 18.5195L16.9506 18.5428L16.9666 18.5649C16.9715 18.5735 16.9764 18.5809 16.9813 18.5882L16.9985 18.6103L17.0144 18.6325C17.0206 18.6386 17.0255 18.646 17.0316 18.6533L17.0685 18.6951L17.1053 18.7344C17.1078 18.7356 17.4061 19.0634 17.885 19.0696H21.4877C22.12 19.0696 22.6321 18.5575 22.6321 17.9264C22.6321 17.294 22.12 16.782 21.4877 16.782H19.0589V10.952C19.0589 10.3208 18.5469 9.8088 17.9145 9.8088C17.2833 9.8088 16.7713 10.3208 16.7713 10.952V17.9264H16.7701ZM17.9145 4.38642C10.4342 4.38642 4.36836 10.4485 4.36836 17.9264C4.36836 25.4043 10.4329 31.4652 17.9145 31.4652C25.3948 31.4652 31.4594 25.4031 31.4594 17.9264C31.4594 10.4485 25.3948 4.38642 17.9145 4.38642ZM10.3678 34.1727V64.2536C10.3678 65.7799 11.6215 67.0336 13.149 67.0336H78.1095C79.6358 67.0336 80.8895 65.7799 80.8895 64.2536V29.0438C80.8895 27.5175 79.6358 26.2638 78.1095 26.2638H33.7727C29.3413 34.6675 19.0552 38.2112 10.3678 34.1727ZM28.9643 6.88028C22.8617 0.7801 12.9661 0.7801 6.86344 6.88028C0.760804 12.9805 0.760804 22.8711 6.86344 28.9713C12.9661 35.0715 22.8617 35.0715 28.9643 28.9713C35.0669 22.8711 35.0669 12.9805 28.9643 6.88028ZM17.5559 45.6744L21.8352 39.4845L25.9547 43.8988C26.4054 44.3826 27.174 44.3826 27.6259 43.8988C30.4255 40.8929 33.23 37.892 36.0333 34.8898L42.6516 43.7994C43.106 44.4133 44.0257 44.4059 44.4775 43.808L44.4788 43.8092L50.8417 35.3822L56.382 38.8436C56.8645 39.1432 57.4846 39.04 57.8456 38.625L64.9883 30.9716L69.238 35.5258C69.6678 35.9875 70.3898 36.0133 70.8515 35.5848L73.4521 32.0939L73.5099 32.5359C73.5909 33.1609 74.1643 33.6005 74.7881 33.5194C75.4119 33.4372 75.8527 32.8662 75.7716 32.2412L75.3529 29.0745C75.2878 28.4028 74.7525 27.9558 74.1238 28.005L70.6894 28.2776C70.0595 28.3267 69.5904 28.8768 69.6395 29.5055C69.6886 30.1341 70.2387 30.6044 70.8687 30.5553L71.808 30.4804L69.9723 32.9669C68.5897 31.486 67.2046 30.0052 65.8232 28.5219C65.3714 28.0369 64.6039 28.0369 64.1521 28.5219L56.7933 36.4074L51.1818 32.9018C50.6833 32.5776 50.0116 32.6906 49.6482 33.1707L43.5738 41.2171L37.0795 32.4745C36.6337 31.8434 35.784 31.809 35.2966 32.3333L26.7897 41.4479L22.54 36.8937H22.5387C22.0476 36.3669 21.1807 36.4222 20.7657 37.0226L15.6797 44.3789C15.3212 44.8971 15.4513 45.6068 15.9695 45.9641C16.4877 46.3227 17.1986 46.1925 17.5559 45.6744ZM68.4165 41.3338C67.7842 41.3338 67.2722 41.8458 67.2722 42.4769V61.5289C67.2722 62.1601 67.7842 62.6721 68.4165 62.6721H72.4784C73.1096 62.6721 73.6216 62.1601 73.6216 61.5289V42.4769C73.6216 41.8458 73.1096 41.3338 72.4784 41.3338H68.4165ZM71.334 43.6201H69.5609V60.3858H71.334V43.6201ZM60.1442 39.1899C59.5119 39.1899 58.9998 39.7019 58.9998 40.333V61.5289C58.9998 62.1601 59.5119 62.6721 60.1442 62.6721H64.2061C64.8372 62.6721 65.3493 62.1601 65.3493 61.5289V40.333C65.3493 39.7019 64.8372 39.1899 64.2061 39.1899H60.1442ZM63.0617 41.4762H61.2874V60.3858H63.0617V41.4762ZM51.8707 45.9273C51.2395 45.9273 50.7275 46.4393 50.7275 47.0705V61.5289C50.7275 62.1601 51.2395 62.6721 51.8707 62.6721H55.9325C56.5649 62.6721 57.0769 62.1601 57.0769 61.5289V47.0705C57.0769 46.4393 56.5649 45.9273 55.9325 45.9273H51.8707ZM54.7894 48.2149H53.0151V60.3858H54.7894V48.2149ZM43.5984 51.7672C42.9672 51.7672 42.4552 52.278 42.4552 52.9103V61.5289C42.4552 62.1601 42.9672 62.6721 43.5984 62.6721H47.6602C48.2914 62.6721 48.8046 62.1601 48.8046 61.5289V52.9103C48.8046 52.278 48.2914 51.7672 47.6602 51.7672H43.5984ZM46.5158 54.0535H44.7427V60.3858H46.5158V54.0535ZM35.326 42.3234C34.6937 42.3234 34.1816 42.8355 34.1816 43.4666V61.5289C34.1816 62.1601 34.6937 62.6721 35.326 62.6721H39.3879C40.019 62.6721 40.5311 62.1601 40.5311 61.5289V43.4666C40.5311 42.8355 40.019 42.3234 39.3879 42.3234H35.326ZM38.2435 44.6098H36.4704V60.3858H38.2435V44.6098ZM27.0537 50.4803C26.4213 50.4803 25.9093 50.9924 25.9093 51.6235V61.5289C25.9093 62.1601 26.4213 62.6721 27.0537 62.6721H31.1156C31.7467 62.6721 32.2587 62.1601 32.2587 61.5289V51.6235C32.2587 50.9924 31.7467 50.4803 31.1156 50.4803H27.0537ZM29.9712 52.7667H28.1969V60.3858H29.9712V52.7667ZM18.7802 54.0584C18.149 54.0584 17.637 54.5705 17.637 55.2028V61.5289C17.637 62.1601 18.149 62.6721 18.7802 62.6721H22.842C23.4744 62.6721 23.9864 62.1601 23.9864 61.5289V55.2028C23.9864 54.5705 23.4744 54.0584 22.842 54.0584H18.7802ZM21.6989 56.346H19.9245V60.3858H21.6989V56.346ZM34.8582 69.3199L29.3339 79.7005H61.9247L56.4004 69.3199H34.8582Z" fill="black"/>
</g>
</svg>
