<svg width="82" height="82" viewBox="0 0 82 82" fill="none" xmlns="http://www.w3.org/2000/svg">
<mask id="mask0_6708_2510" style="mask-type:luminance" maskUnits="userSpaceOnUse" x="0" y="0" width="82" height="82">
<path d="M0 0H81.9983V82H0V0Z" fill="white"/>
</mask>
<g mask="url(#mask0_6708_2510)">
<path fill-rule="evenodd" clip-rule="evenodd" d="M40.9992 81.9983C63.5843 81.9983 81.9983 63.5843 81.9983 40.9992C81.9983 18.4157 63.5843 0 40.9992 0C18.4157 0 0 18.4207 0 40.9992C0 63.5793 18.419 81.9983 40.9992 81.9983Z" fill="#E5F2FE"/>
</g>
<path fill-rule="evenodd" clip-rule="evenodd" d="M24.6855 13.3867H64.7833C62.5583 13.3867 60.7423 15.2027 60.7423 17.4244V42.3464C55.7432 42.3464 51.6889 46.404 51.6889 51.4031C51.6889 56.4022 55.7432 60.4566 60.7423 60.4566V64.5727C60.7423 66.7743 58.978 68.642 56.7013 68.6103C54.4813 68.6103 52.6636 66.7893 52.6636 64.5727V60.4299H20.6211V17.4494C20.6211 15.2094 22.4488 13.3867 24.6855 13.3867ZM54.448 26.82C54.448 31.3066 50.8092 34.9504 46.3176 34.9504C41.8276 34.9504 38.1872 31.3066 38.1872 26.82C38.1872 22.3317 41.8309 18.6896 46.3176 18.6896C50.8059 18.6896 54.448 22.3283 54.448 26.82ZM27.5914 24.6084C27.2092 24.6084 26.9004 24.2979 26.9004 23.9173C26.9004 23.5384 27.2092 23.228 27.5914 23.228H34.707C35.0892 23.228 35.3964 23.5384 35.3964 23.9173C35.3964 24.2979 35.0892 24.6084 34.707 24.6084H27.5914ZM27.5914 56.1018C27.2092 56.1018 26.9004 55.7963 26.9004 55.4141C26.9004 55.0335 27.2092 54.7231 27.5914 54.7231H50.3619C50.7425 54.7231 51.0529 55.0335 51.0529 55.4141C51.0529 55.7963 50.7425 56.1018 50.3619 56.1018H27.5914ZM27.5914 49.8058C27.2092 49.8058 26.9004 49.4953 26.9004 49.1131C26.9004 48.7325 27.2092 48.4254 27.5914 48.4254H49.8528C50.235 48.4254 50.5438 48.7325 50.5438 49.1131C50.5438 49.4953 50.235 49.8058 49.8528 49.8058H27.5914ZM27.5914 43.5081C27.2092 43.5081 26.9004 43.1976 26.9004 42.8154C26.9004 42.4348 27.2092 42.1244 27.5914 42.1244H53.6685C54.0507 42.1244 54.3595 42.4348 54.3595 42.8154C54.3595 43.1976 54.0507 43.5081 53.6685 43.5081H27.5914ZM27.5914 37.2071C27.2092 37.2071 26.9004 36.8966 26.9004 36.516C26.9004 36.1338 27.2092 35.8267 27.5914 35.8267H53.777C54.1575 35.8267 54.468 36.1338 54.468 36.516C54.468 36.8966 54.1575 37.2071 53.777 37.2071H27.5914ZM27.5914 30.9094C27.2092 30.9094 26.9004 30.5989 26.9004 30.2184C26.9004 29.8361 27.2092 29.5257 27.5914 29.5257H34.707C35.0892 29.5257 35.3964 29.8361 35.3964 30.2184C35.3964 30.5989 35.0892 30.9094 34.707 30.9094H27.5914Z" fill="#273E76"/>
<path fill-rule="evenodd" clip-rule="evenodd" d="M51.2833 61.8125H13.5957V64.5749C13.5957 66.7949 15.4117 68.6126 17.6334 68.6126H53.096C51.9843 67.6178 51.2833 66.1756 51.2833 64.5749V61.8125Z" fill="#273E76"/>
<path fill-rule="evenodd" clip-rule="evenodd" d="M62.1172 20.0858H67.4334V17.4285C67.4334 15.9696 66.2333 14.7695 64.7761 14.7695C63.319 14.7695 62.1172 15.9696 62.1172 17.4285V20.0858Z" fill="#273E76"/>
<path fill-rule="evenodd" clip-rule="evenodd" d="M53.0628 26.82C53.0628 30.5472 50.0383 33.5667 46.3111 33.5667C42.5839 33.5667 39.5645 30.5472 39.5645 26.82C39.5645 23.0912 42.5839 20.0684 46.3111 20.0684C50.0383 20.0684 53.0628 23.0912 53.0628 26.82ZM49.1787 25.1342C49.1787 25.5148 48.8683 25.8219 48.486 25.8219C48.1055 25.8219 47.795 25.5148 47.795 25.1342C47.795 24.3147 46.1392 23.8056 45.1895 24.52C44.9675 24.6902 44.8273 24.9089 44.8273 25.1342C44.8273 25.8119 45.6301 25.9554 46.4313 26.0956C47.805 26.336 49.1787 26.578 49.1787 28.4174C49.1787 29.6075 48.1472 30.4521 47.0022 30.6808V31.3618C47.0022 31.744 46.6934 32.0545 46.3111 32.0545C45.9322 32.0545 45.6234 31.744 45.6234 31.3618V30.6808C44.4784 30.4521 43.4469 29.6075 43.4469 28.4174C43.4469 28.0352 43.7573 27.7264 44.1396 27.7264C44.5201 27.7264 44.8273 28.0352 44.8273 28.4174C44.8273 29.237 46.4881 29.7444 47.4361 29.0267C47.6581 28.8581 47.795 28.6427 47.795 28.4174C47.795 27.7364 46.9955 27.5962 46.1943 27.4526C44.8206 27.2106 43.4485 26.9719 43.4485 25.1342C43.4485 23.9391 44.4784 23.0979 45.6234 22.8675V22.2733C45.6234 21.8911 45.9322 21.5823 46.3111 21.5823C46.6934 21.5823 47.0022 21.8911 47.0022 22.2733V22.8675C48.1472 23.0979 49.1787 23.9391 49.1787 25.1342Z" fill="#273E76"/>
<path fill-rule="evenodd" clip-rule="evenodd" d="M60.7336 43.7285C64.9732 43.7285 68.4067 47.1636 68.4067 51.4032C68.4067 55.6429 64.9732 59.0763 60.7336 59.0763C56.494 59.0763 53.0605 55.6395 53.0605 51.4032C53.0605 47.167 56.4973 43.7285 60.7336 43.7285ZM59.6937 50.4084L62.7232 47.7445C63.5778 46.99 64.8914 47.0751 65.6425 47.9297C66.3953 48.7844 66.3102 50.0996 65.4556 50.8524L60.6718 55.062C59.7421 55.8782 58.2966 55.6979 57.5956 54.6748L55.6728 51.8606C55.0268 50.9175 55.2672 49.6256 56.2136 48.983C57.1566 48.342 58.4435 48.5824 59.0862 49.5255L59.6937 50.4084Z" fill="#41A5DE"/>
<path d="M56.8162 51.0847C56.6009 50.7709 56.681 50.3403 56.9948 50.1283C57.3119 49.913 57.7375 49.9948 57.9545 50.3086L59.4384 52.4801L63.638 48.7847C63.9251 48.5309 64.3624 48.5593 64.6127 48.8464C64.8648 49.1302 64.8347 49.5675 64.551 49.8179L59.6988 54.0808C59.385 54.2928 58.9544 54.2144 58.7424 53.8989L56.8162 51.0847Z" fill="#41A5DE"/>
</svg>
