<svg xmlns="http://www.w3.org/2000/svg" xmlns:xlink="http://www.w3.org/1999/xlink" width="387" zoomAndPan="magnify" viewBox="0 0 290.25 374.999991" height="500" preserveAspectRatio="xMidYMid meet" version="1.0"><defs><clipPath id="203cdf1f29"><path d="M 0 0.484375 L 289.5 0.484375 L 289.5 374.515625 L 0 374.515625 Z M 0 0.484375 " clip-rule="nonzero"/></clipPath></defs><path fill="#f4b2b0" d="M 6.03125 6.621094 L 6.03125 368.378906 L 283.46875 368.378906 L 283.46875 6.621094 Z M 259.34375 344.261719 L 30.15625 344.261719 L 30.15625 247.792969 L 259.34375 247.792969 Z M 259.34375 223.675781 L 30.15625 223.675781 L 30.15625 30.738281 L 259.34375 30.738281 Z M 259.34375 223.675781 " fill-opacity="1" fill-rule="nonzero"/><g clip-path="url(#203cdf1f29)"><path fill="#b3404a" d="M 283.46875 0.589844 L 6.03125 0.589844 C 2.695312 0.589844 0 3.292969 0 6.621094 L 0 368.378906 C 0 371.707031 2.695312 374.410156 6.03125 374.410156 L 283.46875 374.410156 C 286.804688 374.410156 289.503906 371.707031 289.503906 368.378906 L 289.503906 6.621094 C 289.503906 3.292969 286.804688 0.589844 283.46875 0.589844 Z M 277.4375 362.351562 L 12.0625 362.351562 L 12.0625 12.648438 L 277.4375 12.648438 Z M 277.4375 362.351562 " fill-opacity="1" fill-rule="nonzero"/></g><path fill="#b3404a" d="M 30.15625 229.707031 L 259.34375 229.707031 C 262.679688 229.707031 265.375 227.003906 265.375 223.675781 L 265.375 30.738281 C 265.375 27.410156 262.679688 24.707031 259.34375 24.707031 L 30.15625 24.707031 C 26.820312 24.707031 24.125 27.410156 24.125 30.738281 L 24.125 223.675781 C 24.125 227.003906 26.820312 229.707031 30.15625 229.707031 Z M 36.1875 36.765625 L 253.3125 36.765625 L 253.3125 217.648438 L 36.1875 217.648438 Z M 36.1875 36.765625 " fill-opacity="1" fill-rule="nonzero"/><path fill="#b3404a" d="M 30.15625 350.292969 L 259.34375 350.292969 C 262.679688 350.292969 265.375 347.589844 265.375 344.261719 L 265.375 247.792969 C 265.375 244.464844 262.679688 241.765625 259.34375 241.765625 L 30.15625 241.765625 C 26.820312 241.765625 24.125 244.464844 24.125 247.792969 L 24.125 344.261719 C 24.125 347.589844 26.820312 350.292969 30.15625 350.292969 Z M 36.1875 253.824219 L 253.3125 253.824219 L 253.3125 338.234375 L 36.1875 338.234375 Z M 36.1875 253.824219 " fill-opacity="1" fill-rule="nonzero"/><path fill="#b3404a" d="M 66.34375 271.910156 L 66.34375 320.144531 C 66.34375 323.472656 69.039062 326.175781 72.375 326.175781 L 96.5 326.175781 L 96.5 314.117188 L 78.40625 314.117188 L 78.40625 302.058594 L 96.5 302.058594 L 96.5 290 L 78.40625 290 L 78.40625 277.941406 L 96.5 277.941406 L 96.5 265.882812 L 72.375 265.882812 C 69.039062 265.882812 66.34375 268.582031 66.34375 271.910156 Z M 66.34375 271.910156 " fill-opacity="1" fill-rule="nonzero"/><path fill="#b3404a" d="M 132.6875 276.113281 L 126.65625 285.15625 L 120.625 276.113281 L 120.625 265.882812 L 108.5625 265.882812 L 108.5625 277.941406 C 108.5625 279.128906 108.917969 280.296875 109.578125 281.285156 L 119.40625 296.027344 L 109.578125 310.769531 C 108.917969 311.757812 108.5625 312.929688 108.5625 314.117188 L 108.5625 326.175781 L 120.625 326.175781 L 120.625 315.941406 L 126.65625 306.898438 L 132.6875 315.941406 L 132.6875 326.175781 L 144.75 326.175781 L 144.75 314.117188 C 144.75 312.929688 144.394531 311.757812 143.738281 310.769531 L 133.90625 296.027344 L 143.738281 281.285156 C 144.394531 280.296875 144.75 279.128906 144.75 277.941406 L 144.75 265.882812 L 132.6875 265.882812 Z M 132.6875 276.113281 " fill-opacity="1" fill-rule="nonzero"/><path fill="#b3404a" d="M 156.8125 265.882812 L 168.875 265.882812 L 168.875 326.175781 L 156.8125 326.175781 Z M 156.8125 265.882812 " fill-opacity="1" fill-rule="nonzero"/><path fill="#b3404a" d="M 180.9375 277.941406 L 193 277.941406 L 193 326.175781 L 205.0625 326.175781 L 205.0625 277.941406 L 217.125 277.941406 L 217.125 265.882812 L 180.9375 265.882812 Z M 180.9375 277.941406 " fill-opacity="1" fill-rule="nonzero"/><path fill="#b3404a" d="M 173.140625 50.589844 C 171.414062 48.867188 168.828125 48.355469 166.566406 49.285156 C 164.308594 50.21875 162.84375 52.417969 162.84375 54.855469 L 162.84375 72.941406 L 138.71875 72.941406 C 108.785156 72.941406 84.4375 97.289062 84.4375 127.207031 L 84.4375 199.558594 C 84.4375 202.886719 87.132812 205.589844 90.46875 205.589844 L 126.65625 205.589844 C 129.992188 205.589844 132.6875 202.886719 132.6875 199.558594 L 132.6875 133.234375 C 132.6875 126.585938 138.097656 121.175781 144.75 121.175781 L 162.84375 121.175781 L 162.84375 139.265625 C 162.84375 141.699219 164.308594 143.902344 166.566406 144.835938 C 168.820312 145.769531 171.414062 145.253906 173.140625 143.527344 L 215.359375 101.324219 C 217.71875 98.964844 217.71875 95.15625 215.359375 92.796875 Z M 174.90625 124.710938 L 174.90625 115.148438 C 174.90625 111.820312 172.210938 109.117188 168.875 109.117188 L 144.75 109.117188 C 131.445312 109.117188 120.625 119.933594 120.625 133.234375 L 120.625 193.53125 L 96.5 193.53125 L 96.5 127.207031 C 96.5 103.933594 115.445312 85 138.71875 85 L 168.875 85 C 172.210938 85 174.90625 82.300781 174.90625 78.972656 L 174.90625 69.410156 L 202.566406 97.058594 Z M 174.90625 124.710938 " fill-opacity="1" fill-rule="nonzero"/></svg>