<svg width="22" height="88" viewBox="0 0 22 88" fill="none" xmlns="http://www.w3.org/2000/svg">
<path d="M11.0098 0.798828C11.7423 0.2191 12.6877 0.0874439 13.5146 0.356445C13.9233 0.417428 14.3253 0.570853 14.6826 0.825195L14.835 0.941406L14.8701 0.970703L14.8906 1.01172C15.2294 1.67588 15.4382 2.15399 15.7842 2.78809L15.9355 3.05176C16.0898 3.30911 16.2544 3.54936 16.4404 3.79883L16.4414 3.7998C17.7919 5.6271 19.2713 7.28248 20.7002 9.09766L20.7744 9.1875C21.1181 9.65135 21.0616 10.3088 20.6299 10.709L20.6279 10.71C20.167 11.1298 19.4547 11.098 19.0273 10.6455V10.6465C18.0499 9.69952 17.1264 8.74509 16.1387 7.83887C15.7275 7.4631 15.3311 7.09383 14.916 6.74805C14.8151 7.23318 14.6927 7.71063 14.5479 8.18164V8.18262C13.5924 11.2528 11.7472 14.0105 10.041 16.7891C8.52335 19.2681 7.13234 21.7626 6.82422 24.6572C6.68244 26.1035 6.98851 27.3774 7.52148 28.5771C8.27895 30.276 9.38222 31.8224 10.376 33.4697C11.362 35.1042 12.2263 36.8194 12.4404 38.7998H12.4395C12.5986 40.1968 12.3304 41.4653 11.7881 42.6504C10.8812 44.6317 9.15452 46.3952 7.62891 48.1699C6.3453 49.6639 5.20555 51.1505 4.93848 52.916L4.89648 53.2734C4.79 54.55 5.17366 55.5644 5.77637 56.4736L5.93652 56.7051C6.31962 57.2416 6.76886 57.7455 7.24316 58.2432C7.64503 58.6648 8.07214 59.0899 8.48242 59.5195L8.88574 59.9512L9.3457 60.4756C10.3875 61.7196 11.1992 63.1084 11.3271 64.8545C11.4174 66.0675 11.0669 67.2153 10.4805 68.293V68.2939C9.92439 69.3125 9.13067 70.2749 8.36621 71.1875C7.69122 71.9933 7.04162 72.757 6.56738 73.5029L6.375 73.8223C5.3683 75.5998 5.23272 77.2228 5.64453 78.7217C6.32359 81.1858 8.38701 83.3426 10.5645 85.3174H10.5635C11.033 85.7389 11.0668 86.462 10.6445 86.9258C10.2232 87.3919 9.50308 87.4267 9.03809 87.002C6.67397 84.8537 4.40728 82.3847 3.54492 79.5898L3.46582 79.3184C2.91074 77.2803 3.07274 75.0765 4.41895 72.7109C4.92325 71.8242 5.69087 70.9283 6.44922 70.0234C7.21452 69.1103 7.97613 68.1832 8.50586 67.2119V67.2109C8.89789 66.4934 9.14096 65.7698 9.08398 65.0176C8.99224 63.7772 8.37354 62.7969 7.57422 61.8613L7.22168 61.4629C6.66723 60.8552 6.07901 60.279 5.49512 59.6631C4.91774 59.0541 4.35842 58.4205 3.89551 57.7295C3.02715 56.435 2.47507 54.9517 2.61719 53.0889C2.80608 50.6247 4.24674 48.5712 5.86914 46.6641C6.58367 45.8202 7.31784 45.026 7.99023 44.1973C8.65744 43.3749 9.23939 42.5464 9.62891 41.6719L9.75586 41.3652C10.03 40.6467 10.155 39.8963 10.0537 39.082C9.82089 37.3096 8.99274 35.7806 8.01172 34.2803C7.03919 32.7929 5.90042 31.3135 5.11621 29.6963L4.97559 29.3984C4.2909 27.9031 3.87254 26.2869 3.97559 24.4316C4.09933 21.5536 5.14461 18.9663 6.38281 16.4785C7.6282 13.9763 9.05455 11.5978 9.99609 9.07324C10.3097 8.23016 10.548 7.37228 10.6836 6.48926C8.99142 7.56126 7.45544 8.84662 5.83789 10.0762L5.83887 10.0771C5.36844 10.4936 4.64821 10.4496 4.23047 9.97754C3.81929 9.51328 3.85681 8.80031 4.31738 8.38086C5.13301 7.54291 5.99506 6.75261 6.8418 5.95996C7.69046 5.16551 8.52568 4.36701 9.30078 3.50684C9.57427 3.2017 9.80573 2.90258 10.0264 2.56152C10.4061 1.97572 10.5994 1.50859 10.9531 0.866211L10.9746 0.827148L11.0098 0.798828ZM13.5566 64.5332C14.0107 66.0364 13.8484 67.3262 13.3643 68.501C12.949 69.515 12.2951 70.4384 11.5977 71.3291L11.5967 71.3281C11.1647 71.8871 10.7092 72.4441 10.2695 72.998L10.2705 72.999C9.55627 73.9059 8.90253 74.8024 8.54395 75.8506L8.54199 75.8564C8.20449 76.764 8.25246 77.6848 8.49902 78.6055C8.88965 80.0648 9.75382 81.4747 10.5068 82.7266L10.1406 82.9756C9.30344 81.8796 8.28156 80.591 7.69141 79.1807L7.5791 78.8965C7.17748 77.8123 7.05493 76.6563 7.39551 75.4775L7.39746 75.4717C7.73943 74.4044 8.31057 73.4504 8.98633 72.5742L9.28125 72.2031C9.73845 71.6411 10.2448 71.1115 10.7168 70.5889C11.4419 69.7846 12.1147 69.0031 12.5771 68.1318H12.5781C13.1127 67.1271 13.3801 66.0139 13.127 64.6377L13.5566 64.5332ZM6.1084 33.6738C6.51341 34.2479 6.90213 34.8319 7.23438 35.4541H7.23535C7.40356 35.7694 7.55461 36.0935 7.68555 36.4316L7.80957 36.7754L7.81055 36.7773C8.43953 38.7369 8.14271 40.527 7.36914 42.2051C7.08993 42.8104 6.7475 43.3965 6.36523 43.9658L6.36426 43.9668C5.82008 44.7707 5.19164 45.5456 4.55762 46.3125L4.55664 46.3115C3.93676 47.0644 3.31086 47.796 2.73438 48.5508C1.83098 49.7278 1.05794 50.9227 0.646484 52.2373L0.216797 52.1279C0.501538 50.6788 1.16318 49.3219 1.96973 48.0234L2.36719 47.4062C2.77309 46.7927 3.20268 46.1897 3.63574 45.5957C4.20721 44.8045 4.77774 44.0291 5.29395 43.25C5.64559 42.7164 5.97343 42.1909 6.25195 41.6553L6.25293 41.6543C7.01318 40.2084 7.41747 38.7143 7.01465 36.9971L7.01367 36.9932C6.92056 36.5621 6.78553 36.1479 6.62207 35.7393C6.37189 35.1131 6.06381 34.5137 5.73242 33.9082L6.1084 33.6738Z" fill="black" stroke="black" stroke-width="0.443271"/>
</svg>
