<svg xmlns="http://www.w3.org/2000/svg" xmlns:xlink="http://www.w3.org/1999/xlink" width="281" zoomAndPan="magnify" viewBox="0 0 210.75 236.249991" height="315" preserveAspectRatio="xMidYMid meet" version="1.0"><defs><clipPath id="100674db17"><path d="M 0.296875 0 L 210.203125 0 L 210.203125 235.503906 L 0.296875 235.503906 Z M 0.296875 0 " clip-rule="nonzero"/></clipPath></defs><g clip-path="url(#100674db17)"><path fill="#000000" d="M 151.460938 140.132812 C 152.652344 144.394531 151.574219 150.910156 152.949219 154.992188 C 167.21875 155.402344 178.464844 152.796875 190.808594 151.273438 C 194.6875 146.246094 197.328125 139.976562 199.714844 133.449219 C 182.132812 134.179688 167.644531 138.007812 151.460938 140.132812 Z M 16.347656 94.085938 C 13.394531 96.136719 10.613281 97.019531 9.667969 100.027344 C 6.789062 109.167969 11.960938 124.320312 14.121094 134.191406 C 16.753906 146.226562 19.421875 157.511719 21.542969 166.875 C 39.046875 166.367188 55.863281 165.132812 74.996094 164.644531 C 80.242188 184.148438 81.527344 207.625 87.617188 226.292969 C 109.871094 224.546875 139.007812 229.0625 142.554688 212.179688 C 130.890625 215.484375 110.824219 219.335938 98.011719 214.40625 C 95.886719 189.300781 91.59375 166.359375 87.617188 143.109375 C 67.03125 147.242188 46.113281 157.238281 25.257812 152.761719 C 20.160156 137.503906 18.011719 113.269531 16.347656 94.085938 Z M 61.632812 28.71875 C 62.710938 45.964844 64.257812 62.738281 68.316406 77 C 73.347656 77.578125 76.210938 75.988281 80.933594 76.257812 C 79.890625 57.152344 76.996094 35.734375 73.511719 16.835938 C 70.457031 21.703125 64.890625 24.058594 61.632812 28.71875 Z M 80.933594 13.867188 C 82.03125 37.765625 85.816406 54.878906 87.617188 78.484375 C 84.933594 78.277344 85.917969 81.738281 84.648438 82.941406 C 64.523438 84.40625 38.367188 83.601562 24.515625 88.882812 C 19.441406 108.472656 26.175781 128.613281 29.710938 146.074219 C 53.363281 149.507812 70.84375 138.992188 91.328125 134.9375 C 95.636719 159.09375 99.417969 183.785156 102.464844 209.210938 C 119.980469 212.171875 134.847656 206.605469 149.976562 204.753906 C 152.871094 180.207031 145.445312 155.890625 147.007812 132.703125 C 165.40625 130.566406 183.144531 127.761719 201.203125 125.277344 C 205.515625 108.851562 198.335938 88.367188 200.457031 69.574219 C 179.554688 68.101562 160.746094 74.808594 139.582031 75.515625 C 134.195312 57.75 134.121094 30.535156 129.191406 8.667969 C 113.929688 9.632812 95.921875 10.59375 80.933594 13.867188 Z M 134.386719 0.5 C 141.214844 19.90625 139.597656 47.777344 146.265625 67.34375 C 165.375 65.410156 184.1875 59.253906 204.910156 61.402344 C 209.207031 65.875 207.160156 71.613281 207.140625 77.746094 C 207.089844 95.300781 212.148438 116.574219 209.371094 132.703125 C 207.351562 144.40625 199.242188 153.074219 194.519531 160.1875 C 182.308594 162.082031 170.09375 163.980469 155.914062 163.902344 C 156.300781 179.210938 159.683594 194.316406 157.402344 209.953125 C 149.867188 215.570312 147.238281 228.601562 136.609375 232.234375 C 132.605469 233.605469 125.019531 233.917969 118.796875 234.464844 C 106.097656 235.570312 92.421875 236.101562 82.421875 234.464844 C 76.417969 216.203125 72.371094 195.992188 69.800781 174.304688 C 53.726562 173.589844 34.035156 175.640625 17.089844 176.527344 C 10.386719 163.503906 6.359375 138.324219 2.984375 118.597656 C 1.734375 111.265625 -0.722656 102.425781 0.757812 97.054688 C 2.921875 89.203125 15.160156 87.710938 18.578125 79.972656 C 32.1875 79.730469 42.628906 76.308594 57.179688 77 C 58.445312 68.484375 56.070312 60.03125 54.953125 51.003906 C 53.90625 42.578125 50.457031 31.660156 52.722656 24.265625 C 53.953125 20.265625 59.214844 18.785156 62.375 16.097656 C 66.421875 12.652344 67.929688 8.132812 72.027344 4.953125 C 92.769531 3.910156 112.898438 -1.675781 134.386719 0.5 " fill-opacity="1" fill-rule="evenodd"/></g><path fill="#ffce00" d="M 63.117188 116.367188 C 63.445312 118.515625 64.683594 119.75 66.832031 120.078125 C 68.082031 117.617188 70.652344 116.476562 70.539062 112.652344 C 67.476562 111.289062 64.089844 113.449219 63.117188 116.367188 Z M 53.464844 116.367188 C 54.882812 116.683594 54.8125 118.488281 57.179688 117.851562 C 58.910156 115.621094 60.582031 113.335938 60.148438 108.941406 C 56.8125 107.589844 53.660156 112.164062 53.464844 116.367188 Z M 127.707031 105.226562 C 127.828125 109.355469 132.890625 111.980469 135.875 108.941406 C 136.503906 106.886719 131.785156 102.4375 127.707031 105.226562 Z M 139.582031 100.027344 C 140.792969 103.523438 141.445312 107.570312 147.007812 106.710938 C 147.367188 101.953125 143.933594 97.667969 139.582031 100.027344 Z M 129.191406 8.667969 C 134.121094 30.535156 134.195312 57.75 139.582031 75.515625 C 160.746094 74.808594 179.554688 68.101562 200.457031 69.570312 C 198.335938 88.367188 205.515625 108.851562 201.203125 125.277344 C 183.144531 127.761719 165.40625 130.566406 147.007812 132.703125 C 145.445312 155.890625 152.871094 180.207031 149.976562 204.753906 C 134.847656 206.605469 119.980469 212.171875 102.464844 209.210938 C 99.417969 183.785156 95.636719 159.09375 91.328125 134.9375 C 70.84375 138.992188 53.363281 149.507812 29.710938 146.074219 C 26.175781 128.613281 19.441406 108.472656 24.515625 88.882812 C 38.367188 83.601562 64.523438 84.40625 84.648438 82.941406 C 85.917969 81.742188 84.933594 78.28125 87.617188 78.484375 C 85.816406 54.878906 82.03125 37.765625 80.933594 13.867188 C 95.921875 10.59375 113.929688 9.632812 129.191406 8.667969 " fill-opacity="1" fill-rule="evenodd"/><path fill="#bc9904" d="M 73.511719 16.835938 C 76.996094 35.730469 79.890625 57.152344 80.933594 76.257812 C 76.210938 75.988281 73.347656 77.578125 68.316406 77 C 64.257812 62.738281 62.710938 45.964844 61.636719 28.71875 C 64.890625 24.054688 70.457031 21.703125 73.511719 16.835938 " fill-opacity="1" fill-rule="evenodd"/><path fill="#bc9904" d="M 25.257812 152.761719 C 46.113281 157.238281 67.03125 147.242188 87.617188 143.109375 C 91.59375 166.359375 95.886719 189.300781 98.011719 214.40625 C 110.824219 219.335938 130.890625 215.484375 142.554688 212.179688 C 139.007812 229.0625 109.871094 224.546875 87.617188 226.292969 C 81.527344 207.625 80.242188 184.148438 74.996094 164.644531 C 55.863281 165.132812 39.046875 166.367188 21.542969 166.875 C 19.421875 157.511719 16.753906 146.226562 14.121094 134.191406 C 11.960938 124.320312 6.789062 109.167969 9.667969 100.027344 C 10.613281 97.019531 13.394531 96.136719 16.347656 94.085938 C 18.011719 113.269531 20.160156 137.503906 25.257812 152.761719 " fill-opacity="1" fill-rule="evenodd"/><path fill="#000000" d="M 147.007812 106.710938 C 141.445312 107.570312 140.792969 103.523438 139.582031 100.027344 C 143.933594 97.667969 147.363281 101.957031 147.007812 106.710938 " fill-opacity="1" fill-rule="evenodd"/><path fill="#000000" d="M 135.875 108.941406 C 132.890625 111.980469 127.828125 109.355469 127.707031 105.226562 C 131.785156 102.4375 136.503906 106.886719 135.875 108.941406 " fill-opacity="1" fill-rule="evenodd"/><path fill="#000000" d="M 60.148438 108.941406 C 60.582031 113.335938 58.910156 115.621094 57.179688 117.851562 C 54.8125 118.488281 54.882812 116.683594 53.464844 116.367188 C 53.660156 112.164062 56.8125 107.589844 60.148438 108.941406 " fill-opacity="1" fill-rule="evenodd"/><path fill="#000000" d="M 70.539062 112.652344 C 70.652344 116.476562 68.082031 117.621094 66.832031 120.078125 C 64.683594 119.75 63.445312 118.515625 63.117188 116.367188 C 64.089844 113.453125 67.476562 111.289062 70.539062 112.652344 " fill-opacity="1" fill-rule="evenodd"/><path fill="#bc9904" d="M 199.714844 133.449219 C 197.328125 139.976562 194.6875 146.246094 190.808594 151.273438 C 178.464844 152.796875 167.21875 155.402344 152.949219 154.992188 C 151.574219 150.910156 152.652344 144.394531 151.460938 140.132812 C 167.644531 138.007812 182.132812 134.179688 199.714844 133.449219 " fill-opacity="1" fill-rule="evenodd"/></svg>