<svg width="70" height="73" viewBox="0 0 70 73" fill="none" xmlns="http://www.w3.org/2000/svg">
<mask id="mask0_7086_3842" style="mask-type:luminance" maskUnits="userSpaceOnUse" x="0" y="0" width="50" height="73">
<path d="M0 0H49.8012V72.9267H0V0Z" fill="white"/>
</mask>
<g mask="url(#mask0_7086_3842)">
<path fill-rule="evenodd" clip-rule="evenodd" d="M46.2031 72.9267H3.60874C1.68713 72.9267 0.105957 71.3026 0.105957 69.4228V3.50388C0.105957 1.58116 1.72898 0 3.60874 0H46.2031C48.1688 0 49.7059 1.58116 49.7059 3.50388V21.3185C49.7059 21.8308 49.2365 22.3014 48.7241 22.3014H12.9227V25.7611C15.0581 26.2316 16.7252 28.1114 16.7252 30.4186C16.7252 32.7678 15.144 34.6475 12.9227 35.118V37.8087C15.0581 38.2792 16.7252 40.1589 16.7252 42.4662C16.7252 44.7724 15.144 46.6951 12.9227 47.1656V50.6254H48.7241C49.2365 50.6254 49.7059 51.0959 49.7059 51.6082V69.4228C49.7059 71.3026 48.1688 72.9267 46.2031 72.9267Z" fill="#114A65"/>
</g>
<path fill-rule="evenodd" clip-rule="evenodd" d="M47.5702 52.7621H10.7859V45.4569L12.4949 45.0723C13.7345 44.8156 14.5884 43.7479 14.5884 42.4665C14.5884 41.2269 13.6915 40.1592 12.4949 39.8595L10.7859 39.5179V33.4093L12.4949 33.0247C13.7345 32.768 14.5884 31.7003 14.5884 30.4189C14.5884 29.1793 13.6915 28.1116 12.4949 27.8119L10.7859 27.4703V20.1651H47.5702V3.50412C47.5702 2.73503 46.9719 2.13672 46.2028 2.13672H3.60846C2.92533 2.13672 2.24219 2.77687 2.24219 3.50412V69.4231C2.24219 70.1492 2.88235 70.7905 3.60846 70.7905H46.2028C46.9719 70.7905 47.5702 70.1492 47.5702 69.4231V52.7621Z" fill="#72E0FF"/>
<mask id="mask1_7086_3842" style="mask-type:luminance" maskUnits="userSpaceOnUse" x="0" y="0" width="50" height="13">
<path d="M0 0H49.8012V12.0634H0V0Z" fill="white"/>
</mask>
<g mask="url(#mask1_7086_3842)">
<path fill-rule="evenodd" clip-rule="evenodd" d="M0.105957 11.8768V3.50388C0.105957 1.58116 1.72898 0 3.60874 0H46.2031C48.1688 0 49.7059 1.58116 49.7059 3.50388V11.8768H0.105957Z" fill="#367E97"/>
</g>
<mask id="mask2_7086_3842" style="mask-type:luminance" maskUnits="userSpaceOnUse" x="0" y="59" width="50" height="14">
<path d="M0 59.8379H49.8012V72.9271H0V59.8379Z" fill="white"/>
</mask>
<g mask="url(#mask2_7086_3842)">
<path fill-rule="evenodd" clip-rule="evenodd" d="M46.2031 72.9299H3.60874C1.68713 72.9299 0.105957 71.3058 0.105957 69.4261V60.1133H49.7059V69.4261C49.7059 71.3058 48.1688 72.9299 46.2031 72.9299Z" fill="#367E97"/>
</g>
<path fill-rule="evenodd" clip-rule="evenodd" d="M25.2266 6.91966H14.5893C14.077 6.91966 13.6064 6.45029 13.6064 5.93794C13.6064 5.38261 14.077 4.91211 14.5893 4.91211H25.2696C25.8249 4.91211 26.2954 5.38261 26.2954 5.93794C26.2954 6.45029 25.8249 6.91966 25.2266 6.91966Z" fill="white"/>
<path fill-rule="evenodd" clip-rule="evenodd" d="M35.3097 6.91966H31.3793C30.8659 6.91966 30.3965 6.45029 30.3965 5.93794C30.3965 5.38261 30.8659 4.91211 31.3793 4.91211H35.3097C35.822 4.91211 36.2925 5.38261 36.2925 5.93794C36.2925 6.45029 35.822 6.91966 35.3097 6.91966Z" fill="white"/>
<path fill-rule="evenodd" clip-rule="evenodd" d="M29.67 69.1688H20.1852C19.5451 69.1688 18.9897 68.6553 18.9897 67.9722V65.0247C18.9897 64.3835 19.5451 63.8281 20.1852 63.8281H29.67C30.3102 63.8281 30.8655 64.3835 30.8655 65.0247V67.9722C30.8655 68.6553 30.3102 69.1688 29.67 69.1688Z" fill="white"/>
<path fill-rule="evenodd" clip-rule="evenodd" d="M68.931 52.5434H11.9829C11.4705 52.5434 11 52.0728 11 51.5605V46.221C11 45.6645 11.4705 45.1951 11.9829 45.1951C13.5211 45.1951 14.7595 43.9567 14.7595 42.4185C14.7595 40.8803 13.5211 39.6407 11.9829 39.6407C11.4705 39.6407 11 39.1714 11 38.616V34.1734C11 33.6181 11.4705 33.1476 11.9829 33.1476C13.5211 33.1476 14.7595 31.9091 14.7595 30.3709C14.7595 28.8328 13.5211 27.5943 11.9829 27.5943C11.4705 27.5943 11 27.1238 11 26.5685V21.2278C11 20.7155 11.4705 20.2461 11.9829 20.2461H68.931C69.4864 20.2461 69.9569 20.7155 69.9569 21.2278V26.5685C69.9569 26.8252 69.8279 27.1238 69.6571 27.2946C69.4864 27.4654 69.1878 27.5943 68.931 27.5943C68.1619 27.5943 67.5218 27.8929 66.9664 28.4052C66.4529 28.9606 66.1544 29.6448 66.1544 30.3709C66.1544 31.097 66.4529 31.7802 66.9664 32.3355C67.5218 32.849 68.2479 33.1476 68.931 33.1476C68.931 33.1476 68.931 33.1476 69.017 33.1476C69.2307 33.1476 69.5293 33.2754 69.7001 33.4462C69.8709 33.6181 69.9998 33.8737 69.9998 34.1734V38.616C69.9998 38.8728 69.8709 39.1714 69.7001 39.3421C69.5293 39.5129 69.3156 39.6407 69.017 39.6407C68.2479 39.6407 67.5218 39.9405 66.9664 40.4528C66.4529 41.0081 66.1544 41.6924 66.1544 42.4185C66.1544 43.1876 66.4529 43.8278 66.9664 44.3831C67.5218 44.8966 68.2479 45.1951 69.017 45.1951C69.2307 45.1951 69.5293 45.323 69.7001 45.4937C69.8709 45.6645 69.9998 45.9213 69.9998 46.221V51.5605C69.9569 52.0728 69.4864 52.5434 68.931 52.5434Z" fill="#EB3D31"/>
<path fill-rule="evenodd" clip-rule="evenodd" d="M60.1742 35.074H20.6992C20.1857 35.074 19.7163 34.6035 19.7163 34.0481C19.7163 33.5358 20.1857 33.0234 20.6992 33.0234H60.1742C60.6865 33.0234 61.157 33.5358 61.157 34.0481C61.157 34.6035 60.7725 35.074 60.1742 35.074Z" fill="#FFD05C"/>
<path fill-rule="evenodd" clip-rule="evenodd" d="M60.1742 31.1853H20.6992C20.1857 31.1853 19.7163 30.7159 19.7163 30.2036C19.7163 29.6482 20.1857 29.1777 20.6992 29.1777H60.1742C60.6865 29.1777 61.157 29.6482 61.157 30.2036C61.157 30.7159 60.7725 31.1853 60.1742 31.1853Z" fill="#FFD05C"/>
<path fill-rule="evenodd" clip-rule="evenodd" d="M60.1742 27.2986H20.6992C20.1857 27.2986 19.7163 26.8292 19.7163 26.2739C19.7163 25.7604 20.1857 25.291 20.6992 25.291H60.1742C60.6865 25.291 61.157 25.7604 61.157 26.2739C61.157 26.8292 60.7725 27.2986 60.1742 27.2986Z" fill="#FFD05C"/>
<path fill-rule="evenodd" clip-rule="evenodd" d="M36.4203 47.6348H33.2162C32.0625 47.6348 31.0378 46.695 31.0378 45.4565V40.0299C31.0378 38.8774 31.9777 37.8516 33.2162 37.8516H36.4203C37.617 37.8516 38.6417 38.7914 38.6417 40.0299V41.0557C38.6417 41.5681 38.1723 42.0816 37.617 42.0816C37.1035 42.0816 36.5911 41.5681 36.5911 41.0557V40.0299C36.5911 39.9451 36.5481 39.8591 36.4203 39.8591H33.2162C33.1302 39.8591 33.0454 39.9451 33.0454 40.0299V45.4565C33.0454 45.5413 33.1302 45.6273 33.2162 45.6273H36.4203C36.5481 45.6273 36.5911 45.5413 36.5911 45.4565V44.0032C36.5911 43.4908 37.1035 43.0214 37.617 43.0214C38.1723 43.0214 38.6417 43.4908 38.6417 44.0032V45.4565C38.6417 46.609 37.6588 47.6348 36.4203 47.6348ZM61.114 40.2437H59.2761V46.609C59.2342 47.1655 58.8067 47.6348 58.2514 47.6348C57.739 47.6348 57.2685 47.1655 57.2685 46.609V40.2437H55.3458C54.8334 40.2437 54.364 39.7313 54.364 39.219C54.364 38.6636 54.8334 38.1931 55.3458 38.1931H61.114C61.6263 38.1931 62.1387 38.6636 62.1387 39.219C62.1387 39.7313 61.6263 40.2437 61.114 40.2437ZM52.6121 43.9183H49.4079V45.6273H52.6121C53.1674 45.6273 53.6368 46.0967 53.6368 46.609C53.6368 47.1655 53.2104 47.6348 52.6121 47.6348H48.425C47.8697 47.6348 47.4003 47.1655 47.4003 46.609V39.219C47.4003 38.6636 47.8697 38.1931 48.425 38.1931H52.6121C53.1674 38.1931 53.6368 38.6636 53.6368 39.219C53.6368 39.7313 53.1674 40.2437 52.6121 40.2437H49.4079V41.8678H52.6121C53.1674 41.8678 53.6368 42.3801 53.6368 42.8925C53.6368 43.406 53.2104 43.9183 52.6121 43.9183ZM44.9652 47.6348C44.7515 47.6348 44.4947 47.5919 44.3239 47.4211L41.8459 45.1998V46.609C41.8459 47.1655 41.4183 47.6348 40.8212 47.6348C40.3077 47.6348 39.7953 47.1655 39.7953 46.609V39.219C39.7953 38.6636 40.3077 38.1931 40.8212 38.1931C41.3765 38.1931 41.8459 38.6636 41.8459 39.219V40.7142L44.3239 38.4928C44.7515 38.1502 45.3916 38.1502 45.7332 38.5777C46.1177 38.9622 46.1177 39.6454 45.6913 39.988L42.3582 42.9355L45.6913 45.9259C46.1177 46.2674 46.1607 46.9087 45.7332 47.3363C45.5206 47.507 45.2638 47.6348 44.9652 47.6348ZM28.6446 47.6348C28.1322 47.6348 27.6617 47.1655 27.6617 46.609V39.219C27.6617 38.6636 28.1322 38.1931 28.6446 38.1931C29.1999 38.1931 29.6704 38.6636 29.6704 39.219V46.609C29.6704 47.1655 29.1999 47.6348 28.6446 47.6348ZM25.5263 40.2437H23.6895V46.609C23.6895 47.1655 23.219 47.6348 22.6637 47.6348C22.1514 47.6348 21.639 47.1655 21.639 46.609V40.2437H19.7581C19.2458 40.2437 18.7334 39.7313 18.7334 39.219C18.7334 38.6636 19.2458 38.1931 19.7581 38.1931H25.5263C26.0387 38.1931 26.5092 38.6636 26.5092 39.219C26.5092 39.7313 26.0387 40.2437 25.5263 40.2437Z" fill="white"/>
</svg>
