<svg width="70" height="67" viewBox="0 0 70 67" fill="none" xmlns="http://www.w3.org/2000/svg">
<mask id="mask0_7086_3804" style="mask-type:luminance" maskUnits="userSpaceOnUse" x="0" y="0" width="70" height="67">
<path d="M0 0H70V66.6434H0V0Z" fill="white"/>
</mask>
<g mask="url(#mask0_7086_3804)">
<path fill-rule="evenodd" clip-rule="evenodd" d="M54.7615 37.7084C63.0288 37.2786 69.9682 43.8745 69.9682 52.1731C69.9682 60.1718 63.4973 66.6565 55.5148 66.6565C49.3499 66.6565 43.8108 62.7202 41.8246 56.8152C37.8783 59.907 33.2987 62.1956 28.3742 63.4823C28.2318 63.5197 28.0894 63.5147 27.9558 63.4773C19.6122 61.2786 12.7415 56.4229 7.90328 50.1156C2.86643 43.5497 0.0332031 35.411 0.0332031 27.06V8.71523C0.0332031 8.32173 0.315527 7.99443 0.687794 7.92573L27.9558 0.050648C28.1082 0.00692528 28.2643 0.010673 28.4055 0.0531463L55.7359 7.94696C56.0857 8.04815 56.3143 8.36795 56.3143 8.71523H56.3168V27.06C56.3168 30.6603 55.7846 34.2568 54.7615 37.7084Z" fill="#242222"/>
</g>
<path fill-rule="evenodd" clip-rule="evenodd" d="M47.814 53.0986C47.468 52.825 47.408 52.3215 47.6803 51.9743C47.9527 51.6257 48.4561 51.5658 48.8034 51.8393L54.0863 56.003L62.1176 46.7063C62.4061 46.3728 62.9108 46.3353 63.2431 46.6251C63.5767 46.9137 63.6129 47.4196 63.3243 47.7531L54.8246 57.5932C54.5448 57.9393 54.0539 58.0155 53.6966 57.7344L47.814 53.0986ZM46.4286 43.0611C41.4105 48.0904 41.4105 56.2453 46.4286 61.2747C51.4467 66.3028 59.5842 66.3041 64.6023 61.2747C69.6204 56.2453 69.6204 48.0904 64.6023 43.0611C59.5842 38.0317 51.4467 38.0317 46.4286 43.0611Z" fill="#059C62"/>
<path fill-rule="evenodd" clip-rule="evenodd" d="M47.6666 52.9461C47.4567 52.6638 47.453 52.2641 47.6803 51.9743C47.9527 51.6257 48.4561 51.5658 48.8034 51.8393L50.4923 53.1698C50.8508 53.1823 51.2094 53.191 51.5716 53.191C53.393 53.191 55.1769 53.0323 56.9133 52.7313L62.1176 46.7063C62.4061 46.3728 62.9108 46.3365 63.2431 46.6251C63.5766 46.9137 63.6129 47.4196 63.3243 47.7531L59.5154 52.1641C62.4948 51.3771 65.2993 50.1591 67.859 48.5814C67.2768 46.5601 66.1913 44.6538 64.6023 43.0611C59.5841 38.0317 51.4467 38.0317 46.4299 43.0611C43.9901 45.5058 42.7372 48.6888 42.6685 51.8931C44.2837 52.3753 45.9539 52.7313 47.6666 52.9461Z" fill="#62BC89"/>
<path fill-rule="evenodd" clip-rule="evenodd" d="M22.2159 46.1599C20.7806 45.609 18.9355 44.4272 17.7425 43.3179C17.5513 43.1443 17.3627 42.9644 17.1778 42.7795C11.1054 36.6933 11.1054 26.827 17.1778 20.7408C23.2503 14.6533 33.0954 14.6533 39.1703 20.7408C45.2428 26.827 45.2428 36.6933 39.1703 42.7795C34.7256 47.233 28.0398 48.5771 22.2159 46.1599ZM41.0629 52.1699C41.0629 45.1368 46.111 39.1031 53.0342 37.9001C54.141 34.3997 54.7144 30.7508 54.7144 27.0568V9.31294L28.1735 1.64648L1.63379 9.31294V27.0568C1.63379 35.0568 4.34584 42.8507 9.16658 49.1343C13.7625 55.128 20.2746 59.7514 28.1735 61.8763C30.6806 61.203 33.0479 60.2761 35.2603 59.133C37.4552 58 39.4951 56.6533 41.3665 55.128C41.1641 54.1536 41.0629 53.1618 41.0629 52.1699Z" fill="#1C8FCF"/>
<path fill-rule="evenodd" clip-rule="evenodd" d="M20.6953 18.0925C26.6004 14.8432 34.1644 15.7252 39.17 20.7408C45.2425 26.827 45.2425 36.6933 39.17 42.7795C37.2937 44.6596 35.0176 45.985 32.5766 46.7083C35.1275 48.6821 37.9932 50.2661 41.0838 51.3754C41.4473 44.6871 46.373 39.0569 53.0338 37.9001C54.1394 34.3998 54.714 30.7508 54.714 27.0569V9.31294L28.1731 1.64648L27.9408 1.71394C24.072 6.23487 21.4711 11.8788 20.6953 18.0925Z" fill="#5BB2E1"/>
<path fill-rule="evenodd" clip-rule="evenodd" d="M21.7026 44.1451V43.4793C21.7026 43.0358 22.0611 42.6773 22.5034 42.6773C22.9468 42.6773 23.3029 43.0358 23.3029 43.4793V44.8609C26.4384 46.029 29.9075 46.029 33.043 44.8609V43.4793C33.043 43.0358 33.4016 42.6773 33.845 42.6773C34.2873 42.6773 34.6458 43.0358 34.6458 43.4793V44.1451C35.564 43.6629 36.4397 43.0721 37.2541 42.3712V40.3263C37.2541 37.618 35.3391 35.1133 32.6932 35.1133H23.6539C21.008 35.1133 19.0942 37.618 19.0942 40.3263V42.3712C19.9087 43.0721 20.7844 43.6629 21.7026 44.1451Z" fill="#15628C"/>
<path fill-rule="evenodd" clip-rule="evenodd" d="M31.0436 45.4393C31.7207 45.2969 32.389 45.1045 33.0436 44.8609V43.4793C33.0436 43.0358 33.4021 42.6773 33.8456 42.6773C34.2878 42.6773 34.6464 43.0358 34.6464 43.4793V44.1451C35.5645 43.6642 36.4402 43.0721 37.2547 42.3712V40.3263C37.2547 37.618 35.3397 35.1133 32.6938 35.1133H23.6545C23.5471 35.1133 23.4409 35.117 23.3359 35.1258C25.171 39.0845 27.8094 42.5924 31.0436 45.4393Z" fill="#0B7EBA"/>
<path fill-rule="evenodd" clip-rule="evenodd" d="M28.173 22.1998C30.97 22.1998 33.236 24.4721 33.236 27.2741C33.236 30.0774 30.97 32.3497 28.173 32.3497C25.3772 32.3497 23.1086 30.0774 23.1086 27.2741C23.1086 24.4721 25.3772 22.1998 28.173 22.1998ZM17.4921 40.7545V40.331C17.4921 36.752 20.118 33.5127 23.6533 33.5127H32.6926C36.2292 33.5127 38.855 36.752 38.855 40.331V40.7545C43.4859 35.2392 43.1748 27.028 38.0355 21.8775C32.5902 16.4184 23.757 16.4184 18.3091 21.8775C13.1711 27.028 12.8588 35.2404 17.4921 40.7545Z" fill="#E6E6E6"/>
<path fill-rule="evenodd" clip-rule="evenodd" d="M28.1741 22.1999C30.9711 22.1999 33.2371 24.4722 33.2371 27.2742C33.2371 30.0774 30.9711 32.3498 28.1741 32.3498C25.3783 32.3498 23.1097 30.0774 23.1097 27.2742C23.1097 24.4722 25.3783 22.1999 28.1741 22.1999ZM22.6737 33.5977C22.9923 33.5415 23.3196 33.5128 23.6544 33.5128H32.6937C36.2303 33.5128 38.8561 36.752 38.8561 40.331V40.7545C43.487 35.2392 43.1759 27.0281 38.0366 21.8776C33.2759 17.1055 25.9267 16.5047 20.5138 20.0762C20.4751 20.7158 20.4526 21.3591 20.4526 22.0087C20.4526 26.1037 21.2421 30.015 22.6737 33.5977Z" fill="#F4F5F6"/>
<path fill-rule="evenodd" clip-rule="evenodd" d="M30.6225 24.8174C28.4476 22.6375 24.7124 24.1891 24.7124 27.2709C24.7124 30.354 28.4476 31.9042 30.6225 29.7244C31.9741 28.3702 31.9741 26.1728 30.6225 24.8174Z" fill="#0B7EBA"/>
</svg>
